0
SECTION
2
HEADER
9
$INSUNITS
70
4
9
$ACADVER
1
AC1014
9
$HANDSEED
5
FFFF
0
ENDSEC
0
SECTION
2
TABLES
0
TABLE
2
VPORT
5
8
100
AcDbSymbolTable
0
ENDTAB
0
TABLE
2
LTYPE
5
5
100
AcDbSymbolTable
0
LTYPE
5
14
100
AcDbSymbolTableRecord
100
AcDbLinetypeTableRecord
2
BYBLOCK
70
0
0
LTYPE
5
15
100
AcDbSymbolTableRecord
100
AcDbLinetypeTableRecord
2
BYLAYER
70
0
0
LTYPE
5
16
100
AcDbSymbolTableRecord
100
AcDbLinetypeTableRecord
2
DASHED
70
0
3
Dashed __ __ __ __ __ __ __ __ __ __ __ __ __ _
72
65
73
2
40
0.75
49
0.5
74
0
49
-0.25
74
0
0
ENDTAB
0
TABLE
2
LAYER
5
2
100
AcDbSymbolTable
70
2
0
LAYER
5
50
100
AcDbSymbolTableRecord
100
AcDbLayerTableRecord
2
0
70
0
62
7
6
CONTINUOUS
0
ENDTAB
0
TABLE
2
STYLE
5
3
100
AcDbSymbolTable
70
1
0
STYLE
5
11
100
AcDbSymbolTableRecord
100
AcDbTextStyleTableRecord
2
STANDARD
70
0
0
ENDTAB
0
TABLE
2
VIEW
5
6
100
AcDbSymbolTable
70
0
0
ENDTAB
0
TABLE
2
UCS
5
7
100
AcDbSymbolTable
70
0
0
ENDTAB
0
TABLE
2
APPID
5
9
100
AcDbSymbolTable
70
2
0
APPID
5
12
100
AcDbSymbolTableRecord
100
AcDbRegAppTableRecord
2
ACAD
70
0
0
ENDTAB
0
TABLE
2
DIMSTYLE
5
A
100
AcDbSymbolTable
70
1
0
ENDTAB
0
TABLE
2
BLOCK_RECORD
5
1
100
AcDbSymbolTable
70
1
0
BLOCK_RECORD
5
1F
100
AcDbSymbolTableRecord
100
AcDbBlockTableRecord
2
*MODEL_SPACE
0
BLOCK_RECORD
5
1B
100
AcDbSymbolTableRecord
100
AcDbBlockTableRecord
2
*PAPER_SPACE
0
ENDTAB
0
ENDSEC
0
SECTION
2
BLOCKS
0
BLOCK
5
20
100
AcDbEntity
100
AcDbBlockBegin
2
*MODEL_SPACE
0
ENDBLK
5
21
100
AcDbEntity
100
AcDbBlockEnd
0
BLOCK
5
1C
100
AcDbEntity
100
AcDbBlockBegin
2
*PAPER_SPACE
0
ENDBLK
5
1D
100
AcDbEntity
100
AcDbBlockEnd
0
ENDSEC
0
SECTION
2
ENTITIES
0
ARC
5
100
100
AcDbEntity
8
0
100
AcDbCircle
10
-23.809500000000003
20
4.0419056990259605e-15
30
0
40
0.19049999999999889
210
0
220
0
230
1
100
AcDbArc
50
161.77475652721708
51
341.77475652721711
0
SPLINE
5
101
100
AcDbEntity
8
0
100
AcDbSpline
70
0
71
3
72
17
73
13
74
0
42
0.000000001
43
0.0000000001
44
0.0000000001
40
-1
40
-1
40
-1
40
-1
40
-0.78659859212629546
40
-0.78659859212629546
40
-0.78659859212629546
40
-0.49274018001621944
40
-0.49274018001621944
40
-0.49274018001621944
40
-0.22999597466290775
40
-0.22999597466290775
40
-0.22999597466290775
40
0
40
0
40
0
40
0
10
-23.990443443727301
20
0.05957952812926233
30
0
10
-23.00140995780049
20
3.0632811438414094
30
0
10
-21.412144960038326
20
5.7738360242962186
30
0
10
-19.392777582824383
20
7.9554655678304513
30
0
10
-16.612064480471428
20
10.959617226730519
30
0
10
-13.001447936652475
20
12.934388781348122
30
0
10
-9.365773622397132
20
13.528020641526592
30
0
10
-6.1150504194668738
20
14.058797794561009
30
0
10
-2.859819012575012
20
13.473251716523968
30
0
10
-0.37326584926467121
20
11.962162662917475
30
0
10
1.8033652873865413
20
10.639414558085498
30
0
10
3.370017259301783
20
8.6023067271173836
30
0
10
3.8806316286502023
20
6.444223051202508
30
0
0
ARC
5
102
100
AcDbEntity
8
0
100
AcDbCircle
10
3.6952500000000033
20
6.4003607466688912
30
0
40
0.19050000000000006
210
0
220
0
230
1
100
AcDbArc
50
-166.68830831249414
51
13.311691687505585
0
SPLINE
5
103
100
AcDbEntity
8
0
100
AcDbSpline
70
0
71
3
72
17
73
13
74
0
42
0.000000001
43
0.0000000001
44
0.0000000001
40
0
40
0
40
0
40
0
40
0.23138400657367808
40
0.23138400657367808
40
0.23138400657367808
40
0.49458268840435399
40
0.49458268840435399
40
0.49458268840435399
40
0.78944290194622491
40
0.78944290194622491
40
0.78944290194622491
40
1
40
1
40
1
40
1
10
3.5098683713498042
20
6.3564984421352753
30
0
10
3.0231989241574238
20
8.4133802155421176
30
0
10
1.5120765050455272
20
10.38257674778389
30
0
10
-0.6092425609332397
20
11.659622088430094
30
0
10
-3.0222372625791687
20
13.112257710369938
30
0
10
-6.1951054575582853
20
13.674201562954902
30
0
10
-9.3710748244940199
20
13.140955606960196
30
0
10
-12.929097984881919
20
12.543562734924116
30
0
10
-16.470390540439713
20
10.586647313209429
30
0
10
-19.192156558572215
20
7.6108144438088496
30
0
10
-21.135745852887023
20
5.485798234441396
30
0
10
-22.668822153478018
20
2.8551405671439012
30
0
10
-23.628556556272706
20
-0.059579528129250672
30
0
0
ARC
5
104
100
AcDbEntity
8
0
100
AcDbCircle
10
11.904749999999993
20
-20.619631851405593
30
0
40
0.19050000000000217
210
-0
220
0
230
1
100
AcDbArc
50
-78.225243468779482
51
101.77475653122055
0
SPLINE
5
105
100
AcDbEntity
8
0
100
AcDbSpline
70
0
71
3
72
17
73
13
74
0
42
0.000000001
43
0.0000000001
44
0.0000000001
40
-1
40
-1
40
-1
40
-1
40
-0.78659859723874637
40
-0.78659859723874637
40
-0.78659859723874637
40
-0.49274018101793193
40
-0.49274018101793193
40
-0.49274018101793193
40
-0.22999597538676556
40
-0.22999597538676556
40
-0.22999597538676556
40
0
40
0
40
0
40
0
10
11.943624336971245
20
-20.806123234383591
30
0
10
8.8478257634042503
20
-21.451445903035594
30
0
10
5.7057839563192108
20
-21.430379498579796
30
0
10
2.806753719094925
20
-20.772370867874564
30
0
10
-1.1852745574954708
20
-19.866278538692494
30
0
10
-4.7007852343257612
20
-17.726778654353364
30
0
10
-7.032722703436507
20
-14.875008233016835
30
0
10
-9.1177508124924387
20
-12.325187936451004
30
0
10
-10.238268746105492
20
-9.213301801774552
30
0
10
-10.172903826196148
20
-6.3043390633295795
30
0
10
-10.115685938271602
20
-3.7579471427724305
30
0
10
-9.1348247913360794
20
-1.3826328105679031
30
0
10
-7.5211766843278749
20
0.13861404753152901
30
0
0
ARC
5
106
100
AcDbEntity
8
0
100
AcDbCircle
10
-7.3904999999999994
20
0
30
0
40
0.19050000000000017
210
-0
220
0
230
1
100
AcDbArc
50
-46.688308309131827
51
133.31169169086857
0
SPLINE
5
107
100
AcDbEntity
8
0
100
AcDbSpline
70
0
71
3
72
17
73
13
74
0
42
0.000000001
43
0.0000000001
44
0.0000000001
40
0
40
0
40
0
40
0
40
0.23138400542573301
40
0.23138400542573301
40
0.23138400542573301
40
0.49458268740818734
40
0.49458268740818734
40
0.49458268740818734
40
0.78944290348207891
40
0.78944290348207891
40
0.78944290348207891
40
1
40
1
40
1
40
1
10
-7.2598233156721248
20
-0.13861404753152901
30
0
10
-8.7978004530193807
20
-1.5885230319358805
30
0
10
-9.7476134638905805
20
-3.8817916853389534
30
0
10
-9.7929076459658617
20
-6.3574305422033728
30
0
10
-9.8444296558893765
20
-9.1734630635195593
30
0
10
-8.7446532187308126
20
-12.202219453314829
30
0
10
-6.6948639966583912
20
-14.68606663405426
30
0
10
-4.3984950012904758
20
-17.46870867044629
30
0
10
-0.93311022097448959
20
-19.557100293224906
30
0
10
3.0049196889945047
20
-20.426302368618462
30
0
10
5.8170323398107477
20
-21.046991954073945
30
0
10
8.8617868363917562
20
-21.059346137951941
30
0
10
11.865875663028744
20
-20.433140468427595
30
0
0
CIRCLE
5
108
100
AcDbEntity
8
0
100
AcDbCircle
10
0
20
0
30
0
40
3.2000000000000002
210
0
220
-0
230
1
0
CIRCLE
5
109
100
AcDbEntity
8
0
100
AcDbCircle
10
0
20
0
30
0
40
30
210
0
220
0
230
1
0
ARC
5
110
100
AcDbEntity
8
0
100
AcDbCircle
10
3.6952499999999984
20
-6.4003607466688948
30
0
40
0.19050000000000025
210
0
220
-0
230
1
100
AcDbArc
50
73.311691688041549
51
253.31169168804149
0
SPLINE
5
111
100
AcDbEntity
8
0
100
AcDbSpline
70
0
71
3
72
17
73
13
74
0
42
0.000000001
43
0.0000000001
44
0.0000000001
40
0
40
0
40
0
40
0
40
0.23138400657044161
40
0.23138400657044161
40
0.23138400657044161
40
0.49458268848656628
40
0.49458268848656628
40
0.49458268848656628
40
0.78944290443244303
40
0.78944290443244303
40
0.78944290443244303
40
1
40
1
40
1
40
1
10
3.749954944328751
20
-6.2178843945955702
30
0
10
5.774601536336597
20
-6.8248571767820643
30
0
10
8.2355369677281534
20
-6.5007850397310571
30
0
10
10.40215020748281
20
-5.3021915094302621
30
0
10
12.866666910160987
20
-3.9387946091681685
30
0
10
14.939758660027207
20
-1.4719820745735945
30
0
10
16.065938798933622
20
1.5451110581240028
30
0
10
17.327592985551949
20
4.9251459661997847
30
0
10
17.403500784509994
20
8.9704530307674961
30
0
10
16.18723690034771
20
12.815488008489817
30
0
10
15.318713522002447
20
15.561193781877316
30
0
10
13.807035315160249
20
18.204205602590896
30
0
10
11.76268089324196
20
20.492719996541787
30
0
0
ARC
5
112
100
AcDbEntity
8
0
100
AcDbCircle
10
11.904750000000011
20
20.619631851405586
30
0
40
0.19050000000000109
210
0
220
-0
230
1
100
AcDbArc
50
41.774756532195518
51
221.77475653219628
0
SPLINE
5
113
100
AcDbEntity
8
0
100
AcDbSpline
70
0
71
3
72
17
73
13
74
0
42
0.000000001
43
0.0000000001
44
0.0000000001
40
-1
40
-1
40
-1
40
-1
40
-0.78659859943640409
40
-0.78659859943640409
40
-0.78659859943640409
40
-0.4927401813920379
40
-0.4927401813920379
40
-0.4927401813920379
40
-0.22999597524951257
40
-0.22999597524951257
40
-0.22999597524951257
40
0
40
0
40
0
40
0
10
12.046819106758061
20
20.746543706269382
30
0
10
14.153584196629827
20
18.38816485514986
30
0
10
15.706361048556175
20
15.656543660352538
30
0
10
16.586023981686338
20
12.816905544569188
30
0
10
17.797339171086243
20
8.9066614584536232
30
0
10
17.702233269216048
20
4.7923899327784856
30
0
10
16.398496367992795
20
1.34698761071983
30
0
10
15.232801270978754
20
-1.7336098551463361
30
0
10
13.098087787463637
20
-4.259949924654391
30
0
10
10.546169692012519
20
-5.6578236142677678
30
0
10
8.3123206578618731
20
-6.8814674282967729
30
0
10
5.7648075325818358
20
-7.2196739229042706
30
0
10
3.6405450556712453
20
-6.5828370987422202
30
0
0
ENDSEC
0
SECTION
2
OBJECTS
0
DICTIONARY
5
C
100
AcDbDictionary
3
ACAD_GROUP
350
D
3
ACAD_MLINESTYLE
350
17
0
DICTIONARY
5
D
100
AcDbDictionary
0
DICTIONARY
5
1A
330
C
100
AcDbDictionary
0
DICTIONARY
5
17
100
AcDbDictionary
0
ENDSEC
0
EOF
