0
SECTION
2
HEADER
9
$INSUNITS
70
4
9
$ACADVER
1
AC1014
9
$HANDSEED
5
FFFF
0
ENDSEC
0
SECTION
2
TABLES
0
TABLE
2
VPORT
5
8
100
AcDbSymbolTable
0
ENDTAB
0
TABLE
2
LTYPE
5
5
100
AcDbSymbolTable
0
LTYPE
5
14
100
AcDbSymbolTableRecord
100
AcDbLinetypeTableRecord
2
BYBLOCK
70
0
0
LTYPE
5
15
100
AcDbSymbolTableRecord
100
AcDbLinetypeTableRecord
2
BYLAYER
70
0
0
LTYPE
5
16
100
AcDbSymbolTableRecord
100
AcDbLinetypeTableRecord
2
DASHED
70
0
3
Dashed __ __ __ __ __ __ __ __ __ __ __ __ __ _
72
65
73
2
40
0.75
49
0.5
74
0
49
-0.25
74
0
0
ENDTAB
0
TABLE
2
LAYER
5
2
100
AcDbSymbolTable
70
2
0
LAYER
5
50
100
AcDbSymbolTableRecord
100
AcDbLayerTableRecord
2
0
70
0
62
7
6
CONTINUOUS
0
ENDTAB
0
TABLE
2
STYLE
5
3
100
AcDbSymbolTable
70
1
0
STYLE
5
11
100
AcDbSymbolTableRecord
100
AcDbTextStyleTableRecord
2
STANDARD
70
0
0
ENDTAB
0
TABLE
2
VIEW
5
6
100
AcDbSymbolTable
70
0
0
ENDTAB
0
TABLE
2
UCS
5
7
100
AcDbSymbolTable
70
0
0
ENDTAB
0
TABLE
2
APPID
5
9
100
AcDbSymbolTable
70
2
0
APPID
5
12
100
AcDbSymbolTableRecord
100
AcDbRegAppTableRecord
2
ACAD
70
0
0
ENDTAB
0
TABLE
2
DIMSTYLE
5
A
100
AcDbSymbolTable
70
1
0
ENDTAB
0
TABLE
2
BLOCK_RECORD
5
1
100
AcDbSymbolTable
70
1
0
BLOCK_RECORD
5
1F
100
AcDbSymbolTableRecord
100
AcDbBlockTableRecord
2
*MODEL_SPACE
0
BLOCK_RECORD
5
1B
100
AcDbSymbolTableRecord
100
AcDbBlockTableRecord
2
*PAPER_SPACE
0
ENDTAB
0
ENDSEC
0
SECTION
2
BLOCKS
0
BLOCK
5
20
100
AcDbEntity
100
AcDbBlockBegin
2
*MODEL_SPACE
0
ENDBLK
5
21
100
AcDbEntity
100
AcDbBlockEnd
0
BLOCK
5
1C
100
AcDbEntity
100
AcDbBlockBegin
2
*PAPER_SPACE
0
ENDBLK
5
1D
100
AcDbEntity
100
AcDbBlockEnd
0
ENDSEC
0
SECTION
2
ENTITIES
0
ARC
5
100
100
AcDbEntity
8
0
100
AcDbCircle
10
3.6952499999999984
20
-6.4003607466688948
30
0
40
0.19050000000000011
210
0
220
-0
230
1
100
AcDbArc
50
84.732862049857843
51
264.73286204985772
0
SPLINE
5
101
100
AcDbEntity
8
0
100
AcDbSpline
70
0
71
3
72
23
73
19
74
0
42
0.000000001
43
0.0000000001
44
0.0000000001
40
0
40
0
40
0
40
0
40
0.15990830002218973
40
0.15990830002218973
40
0.15990830002218973
40
0.33961473849294765
40
0.33961473849294765
40
0.33961473849294765
40
0.53827155406358052
40
0.53827155406358052
40
0.53827155406358052
40
0.74517015720037594
40
0.74517015720037594
40
0.74517015720037594
40
0.96370013424885959
40
0.96370013424885959
40
0.96370013424885959
40
1
40
1
40
1
40
1
10
3.7127377996863657
20
-6.210665130319625
30
0
10
5.6465891734738953
20
-6.3889444500996637
30
0
10
7.8081368960441804
20
-5.6895362340740245
30
0
10
9.5560408024533778
20
-4.2561307610756023
30
0
10
11.520351509066698
20
-2.6452563261570039
30
0
10
12.951843835306766
20
-0.13119266611047953
30
0
10
13.428211822443128
20
2.7009582814013577
30
0
10
13.954813696975858
20
5.8317647969375468
30
0
10
13.317047022372568
20
9.3260133234768166
30
0
10
11.573433246085809
20
12.375512398889544
30
0
10
9.7574811797670087
20
15.551527765679269
30
0
10
6.7597553506204004
20
18.22902088445646
30
0
10
3.1191342574580601
20
19.816276195918082
30
0
10
-0.72615436155196667
20
21.492763429398607
30
0
10
-5.2669302136313885
20
21.947154601766918
30
0
10
-9.6687157820134715
20
21.013847820747205
30
0
10
-10.399893386823846
20
20.85881686658146
30
0
10
-11.12709913447911
20
20.666716583349949
30
0
10
-11.847090246258386
20
20.438067530024831
30
0
0
ARC
5
102
100
AcDbEntity
8
0
100
AcDbCircle
10
-11.904749999999979
20
20.619631851405597
30
0
40
0.19049999999999959
210
0
220
0
230
1
100
AcDbArc
50
107.61839334519503
51
287.61839334519436
0
SPLINE
5
103
100
AcDbEntity
8
0
100
AcDbSpline
70
0
71
3
72
23
73
19
74
0
42
0.000000001
43
0.0000000001
44
0.0000000001
40
-1
40
-1
40
-1
40
-1
40
-0.96069405134695551
40
-0.96069405134695551
40
-0.96069405134695551
40
-0.74311960251169562
40
-0.74311960251169562
40
-0.74311960251169562
40
-0.53694834782197831
40
-0.53694834782197831
40
-0.53694834782197831
40
-0.33897781217158551
40
-0.33897781217158551
40
-0.33897781217158551
40
-0.15975693277460637
40
-0.15975693277460637
40
-0.15975693277460637
40
0
40
0
40
0
40
0
10
-11.962409753741575
20
20.801196172786366
30
0
10
-11.169978333900058
20
21.052850243242986
30
0
10
-10.368713076236986
20
21.261011058279674
30
0
10
-9.5629485852584715
20
21.424951319420998
30
0
10
-5.1027136583984838
20
22.332427494963419
30
0
10
-0.50863795224774522
20
21.841307266042321
30
0
10
3.3815788826405768
20
20.117092874806136
30
0
10
7.0679073562164074
20
18.483245489241156
30
0
10
10.102846154165327
20
15.747115087891233
30
0
10
11.939696195554495
20
12.502208052598737
30
0
10
13.703483233425182
20
9.3863712455745301
30
0
10
14.346204865084534
20
5.8158267213207573
30
0
10
13.798684978662559
20
2.6067769762113264
30
0
10
13.303020332357978
20
-0.29834582631932838
30
0
10
11.829097884890857
20
-2.8870379527383649
30
0
10
9.7924784668467009
20
-4.5549635689286214
30
0
10
7.9770422712946871
20
-6.0417472597313466
30
0
10
5.7213531562624622
20
-6.7784524365083643
30
0
10
3.6777622003136305
20
-6.5900563630181654
30
0
0
CIRCLE
5
104
100
AcDbEntity
8
0
100
AcDbCircle
10
0
20
0
30
0
40
30
210
0
220
0
230
1
0
CIRCLE
5
105
100
AcDbEntity
8
0
100
AcDbCircle
10
0
20
0
30
0
40
3.2000000000000002
210
0
220
-0
230
1
0
ARC
5
106
100
AcDbEntity
8
0
100
AcDbCircle
10
-11.904750000000012
20
-20.619631851405586
30
0
40
0.1905000000000005
210
0
220
0
230
1
100
AcDbArc
50
-132.38160665640359
51
47.618393343597148
0
SPLINE
5
107
100
AcDbEntity
8
0
100
AcDbSpline
70
0
71
3
72
23
73
19
74
0
42
0.000000001
43
0.0000000001
44
0.0000000001
40
-1
40
-1
40
-1
40
-1
40
-0.96069404966307115
40
-0.96069404966307115
40
-0.96069404966307115
40
-0.74311960231837915
40
-0.74311960231837915
40
-0.74311960231837915
40
-0.53694834872012764
40
-0.53694834872012764
40
-0.53694834872012764
40
-0.33897781288592405
40
-0.33897781288592405
40
-0.33897781288592405
40
-0.15975693307822025
40
-0.15975693307822025
40
-0.15975693307822025
40
0
40
0
40
0
40
0
10
-12.033159437869767
20
-20.760348823608563
30
0
10
-12.647313992004852
20
-20.199910094527048
30
0
10
-13.228219198268745
20
-19.610074407165705
30
0
10
-13.773077894860595
20
-18.994231990479904
30
0
10
-16.789092741868203
20
-15.585293335816619
30
0
10
-18.660807974883802
20
-11.361146980715681
30
0
10
-19.112702922397968
20
-7.1300132088569681
30
0
10
-19.54091381278856
20
-3.1206354325043573
30
0
10
-18.688824785539747
20
0.87576384436223731
30
0
10
-16.797077899449352
20
4.0889761505257596
30
0
10
-14.980577596105524
20
7.174378945038546
30
0
10
-12.209756151316569
20
9.5162644786195472
30
0
10
-9.1568776057780497
20
10.64662322999861
30
0
10
-6.3931351297982157
20
11.669926465840499
30
0
10
-3.4143007536196537
20
11.687818252336351
30
0
10
-0.95152508193502172
20
10.758016907491267
30
0
10
1.2437854677628737
20
9.929194889745153
30
0
10
3.0096354285572695
20
8.3440633993433853
30
0
10
3.8682751225900436
20
6.48006367605484
30
0
0
ARC
5
108
100
AcDbEntity
8
0
100
AcDbCircle
10
3.6952500000000037
20
6.4003607466688912
30
0
40
0.19050000000000045
210
0
220
0
230
1
100
AcDbArc
50
-155.26713795146659
51
24.732862048534269
0
SPLINE
5
109
100
AcDbEntity
8
0
100
AcDbSpline
70
0
71
3
72
23
73
19
74
0
42
0.000000001
43
0.0000000001
44
0.0000000001
40
0
40
0
40
0
40
0
40
0.15990830016686519
40
0.15990830016686519
40
0.15990830016686519
40
0.33961473857818125
40
0.33961473857818125
40
0.33961473857818125
40
0.53827155410077165
40
0.53827155410077165
40
0.53827155410077165
40
0.74517015715795765
40
0.74517015715795765
40
0.74517015715795765
40
0.96370013227665841
40
0.96370013227665841
40
0.96370013227665841
40
1
40
1
40
1
40
1
10
3.5222248774099629
20
6.3206578172829433
30
0
10
2.7096936097111413
20
8.0845618956519125
30
0
10
1.0232144633575171
20
9.6068130279244901
30
0
10
-1.0921030460480798
20
10.403839477226411
30
0
10
-3.4693165823542076
20
11.299545230925272
30
0
10
-6.3623057409092931
20
11.28222211941811
30
0
10
-9.0532044013060027
20
10.278693423505548
30
0
10
-12.027863314443492
20
9.1693407660385233
30
0
10
-14.7350879671105
20
6.8698943608552119
30
0
10
-16.504224746324027
20
3.8351309989646314
30
0
10
-18.346758702551391
20
0.67446269502270229
30
0
10
-19.166672846966289
20
-3.260390584318837
30
0
10
-18.720965723077242
20
-7.2068885907588465
30
0
10
-18.250201951575214
20
-11.375249799630643
30
0
10
-16.373328354265617
20
-15.534872590517441
30
0
10
-13.364168234492546
20
-18.880277308993151
30
0
10
-12.864318663527353
20
-19.435980244921041
30
0
10
-12.334352037018776
20
-19.969708784916058
30
0
10
-11.776340562130258
20
-20.478914879202605
30
0
0
ARC
5
110
100
AcDbEntity
8
0
100
AcDbCircle
10
23.8095
20
-4.2153780466236412e-15
30
0
40
0.19050000000000078
210
0
220
0
230
1
100
AcDbArc
50
-12.381606660912476
51
167.61839333908753
0
SPLINE
5
111
100
AcDbEntity
8
0
100
AcDbSpline
70
0
71
3
72
23
73
19
74
0
42
0.000000001
43
0.0000000001
44
0.0000000001
40
-1
40
-1
40
-1
40
-1
40
-0.96069404499797417
40
-0.96069404499797417
40
-0.96069404499797417
40
-0.74311960212394157
40
-0.74311960212394157
40
-0.74311960212394157
40
-0.53694834821894322
40
-0.53694834821894322
40
-0.53694834821894322
40
-0.33897781273273397
40
-0.33897781273273397
40
-0.33897781273273397
40
-0.15975693309610234
40
-0.15975693309610234
40
-0.15975693309610234
40
0
40
0
40
0
40
0
10
23.995569191603071
20
-0.04084734919404704
30
0
10
23.817292270798781
20
-0.85294025583425759
30
0
10
23.59693215351632
20
-1.6509368583908364
30
0
10
23.336026283663479
20
-2.430719627660427
30
0
10
21.891806208795149
20
-6.7471343179499055
30
0
10
19.169445810224278
20
-10.480160331401418
30
0
10
15.731124020169769
20
-12.987079668074111
30
0
10
12.473006451670084
20
-15.362610067017775
30
0
10
8.5859786333544914
20
-16.622878959232199
30
0
10
4.8573817007087232
20
-16.59118424530114
30
0
10
1.2770943551787151
20
-16.560750228093749
30
0
10
-2.1364487235702927
20
-15.332091233118931
30
0
10
-4.6418073846273309
20
-13.253400236122344
30
0
10
-6.9098852172054759
20
-11.371580661004678
30
0
10
-8.4147971445992464
20
-8.8007803132628109
30
0
10
-8.8409533951348411
20
-6.2030533478170327
30
0
10
-9.2208277476284533
20
-3.8874476334489296
30
0
10
-8.7309885890530872
20
-1.5656109625691221
30
0
10
-7.5460373228973801
20
0.10999268696561683
30
0
0
ARC
5
112
100
AcDbEntity
8
0
100
AcDbCircle
10
-7.3905000000000012
20
-3.4694469519536142e-16
30
0
40
0.19050000000000081
210
0
220
0
230
1
100
AcDbArc
50
-35.267137952460352
51
144.7328620475387
0
SPLINE
5
113
100
AcDbEntity
8
0
100
AcDbSpline
70
0
71
3
72
23
73
19
74
0
42
0.000000001
43
0.0000000001
44
0.0000000001
40
0
40
0
40
0
40
0
40
0.15990830004776513
40
0.15990830004776513
40
0.15990830004776513
40
0.33961473846726925
40
0.33961473846726925
40
0.33961473846726925
40
0.53827155399614213
40
0.53827155399614213
40
0.53827155399614213
40
0.74517015727923186
40
0.74517015727923186
40
0.74517015727923186
40
0.96370012805752037
40
0.96370012805752037
40
0.96370012805752037
40
1
40
1
40
1
40
1
10
-7.2349626771026196
20
-0.10999268696561683
30
0
10
-8.3562827840678864
20
-1.6956174440269656
30
0
10
-8.8313513626230851
20
-3.9172767918715645
30
0
10
-8.4639377619703779
20
-6.1477087150575063
30
0
10
-8.0510349321581547
20
-8.6542889046610689
30
0
10
-6.5895380994099417
20
-11.151029453722771
30
0
10
-4.3750074259152436
20
-12.979651705550967
30
0
10
-1.9269503871323768
20
-15.001105564123458
30
0
10
1.4180409402484457
20
-16.195907685721295
30
0
10
4.9307914956673891
20
-16.210643399543624
30
0
10
8.5892775217481105
20
-16.225990462266353
30
0
10
12.406917498598432
20
-14.968630299015985
30
0
10
15.601831468998078
20
-12.609387600034481
30
0
10
18.97635621450971
20
-10.11751365846952
30
0
10
21.640258384489172
20
-6.4122821455887102
30
0
10
23.032883816667109
20
-2.1335707848498204
30
0
10
23.26421192544715
20
-1.4228368112877576
30
0
10
23.461451113523747
20
-0.69700789663813811
30
0
10
23.623430808396929
20
0.040847349194041212
30
0
0
ENDSEC
0
SECTION
2
OBJECTS
0
DICTIONARY
5
C
100
AcDbDictionary
3
ACAD_GROUP
350
D
3
ACAD_MLINESTYLE
350
17
0
DICTIONARY
5
D
100
AcDbDictionary
0
DICTIONARY
5
1A
330
C
100
AcDbDictionary
0
DICTIONARY
5
17
100
AcDbDictionary
0
ENDSEC
0
EOF
