0
SECTION
2
HEADER
9
$INSUNITS
70
4
9
$ACADVER
1
AC1014
9
$HANDSEED
5
FFFF
0
ENDSEC
0
SECTION
2
TABLES
0
TABLE
2
VPORT
5
8
100
AcDbSymbolTable
0
ENDTAB
0
TABLE
2
LTYPE
5
5
100
AcDbSymbolTable
0
LTYPE
5
14
100
AcDbSymbolTableRecord
100
AcDbLinetypeTableRecord
2
BYBLOCK
70
0
0
LTYPE
5
15
100
AcDbSymbolTableRecord
100
AcDbLinetypeTableRecord
2
BYLAYER
70
0
0
LTYPE
5
16
100
AcDbSymbolTableRecord
100
AcDbLinetypeTableRecord
2
DASHED
70
0
3
Dashed __ __ __ __ __ __ __ __ __ __ __ __ __ _
72
65
73
2
40
0.75
49
0.5
74
0
49
-0.25
74
0
0
ENDTAB
0
TABLE
2
LAYER
5
2
100
AcDbSymbolTable
70
2
0
LAYER
5
50
100
AcDbSymbolTableRecord
100
AcDbLayerTableRecord
2
0
70
0
62
7
6
CONTINUOUS
0
ENDTAB
0
TABLE
2
STYLE
5
3
100
AcDbSymbolTable
70
1
0
STYLE
5
11
100
AcDbSymbolTableRecord
100
AcDbTextStyleTableRecord
2
STANDARD
70
0
0
ENDTAB
0
TABLE
2
VIEW
5
6
100
AcDbSymbolTable
70
0
0
ENDTAB
0
TABLE
2
UCS
5
7
100
AcDbSymbolTable
70
0
0
ENDTAB
0
TABLE
2
APPID
5
9
100
AcDbSymbolTable
70
2
0
APPID
5
12
100
AcDbSymbolTableRecord
100
AcDbRegAppTableRecord
2
ACAD
70
0
0
ENDTAB
0
TABLE
2
DIMSTYLE
5
A
100
AcDbSymbolTable
70
1
0
ENDTAB
0
TABLE
2
BLOCK_RECORD
5
1
100
AcDbSymbolTable
70
1
0
BLOCK_RECORD
5
1F
100
AcDbSymbolTableRecord
100
AcDbBlockTableRecord
2
*MODEL_SPACE
0
BLOCK_RECORD
5
1B
100
AcDbSymbolTableRecord
100
AcDbBlockTableRecord
2
*PAPER_SPACE
0
ENDTAB
0
ENDSEC
0
SECTION
2
BLOCKS
0
BLOCK
5
20
100
AcDbEntity
100
AcDbBlockBegin
2
*MODEL_SPACE
0
ENDBLK
5
21
100
AcDbEntity
100
AcDbBlockEnd
0
BLOCK
5
1C
100
AcDbEntity
100
AcDbBlockBegin
2
*PAPER_SPACE
0
ENDBLK
5
1D
100
AcDbEntity
100
AcDbBlockEnd
0
ENDSEC
0
SECTION
2
ENTITIES
0
ARC
5
100
100
AcDbEntity
8
0
100
AcDbCircle
10
20.619631851405597
20
-11.904749999999996
30
0
40
0.19049999999999895
210
0
220
0
230
1
100
AcDbArc
50
-38.327507275672417
51
141.67249272432801
0
SPLINE
5
101
100
AcDbEntity
8
0
100
AcDbSpline
70
0
71
3
72
29
73
25
74
0
42
0.000000001
43
0.0000000001
44
0.0000000001
40
-1
40
-1
40
-1
40
-1
40
-0.95454373514757973
40
-0.95454373514757973
40
-0.95454373514757973
40
-0.80156380671621097
40
-0.80156380671621097
40
-0.80156380671621097
40
-0.65475404500117129
40
-0.65475404500117129
40
-0.65475404500117129
40
-0.51086696031190415
40
-0.51086696031190415
40
-0.51086696031190415
40
-0.37426075861025598
40
-0.37426075861025598
40
-0.37426075861025598
40
-0.24276946460234305
40
-0.24276946460234305
40
-0.24276946460234305
40
-0.11727666066240151
40
-0.11727666066240151
40
-0.11727666066240151
40
0
40
0
40
0
40
0
10
20.769075049245956
20
-12.022889665731904
30
0
10
19.897006143678194
20
-13.1260311481273
30
0
10
18.933013556873785
20
-14.143922366205119
30
0
10
17.892502219105324
20
-15.062442322597171
30
0
10
14.390732980021632
20
-18.153657970161724
30
0
10
10.007878857596875
20
-20.077127979303562
30
0
10
5.5733272089127031
20
-20.53441233589735
30
0
10
1.3176351221666105
20
-20.973252961042938
30
0
10
-2.9647476752803077
20
-20.058794608848473
30
0
10
-6.4803072586971764
20
-18.022138439849183
30
0
10
-9.9258793623500594
20
-16.026027859406092
30
0
10
-12.614188440671759
20
-12.960045753965737
30
0
10
-14.046491467408044
20
-9.4919685038138599
30
0
10
-15.406318004937532
20
-6.1993806987703444
30
0
10
-15.624054057508928
20
-2.5637500680195258
30
0
10
-14.718398029398985
20
0.63978400775085342
30
0
10
-13.846652225922725
20
3.7233690556792318
30
0
10
-11.935734170288759
20
6.3840426311237062
30
0
10
-9.4865639371399606
20
8.0410529288896129
30
0
10
-7.1491221908781348
20
9.6224722159451321
30
0
10
-4.3371020943878547
20
10.270937184585682
30
0
10
-1.8081503345835859
20
9.8830963076278309
30
0
10
0.55522834574368796
20
9.5206477728117456
30
0
10
2.6450988119854135
20
8.2479358972645205
30
0
10
3.851761343666988
20
6.508962999424325
30
0
0
ARC
5
102
100
AcDbEntity
8
0
100
AcDbCircle
10
3.6952500000000037
20
6.4003607466688912
30
0
40
0.19050000000000034
210
0
220
0
230
1
100
AcDbArc
50
-145.24345858735416
51
34.756541412645817
0
SPLINE
5
103
100
AcDbEntity
8
0
100
AcDbSpline
70
0
71
3
72
29
73
25
74
0
42
0.000000001
43
0.0000000001
44
0.0000000001
40
0
40
0
40
0
40
0
40
0.11730330159159726
40
0.11730330159159726
40
0.11730330159159726
40
0.24343465692015337
40
0.24343465692015337
40
0.24343465692015337
40
0.37559764356032621
40
0.37559764356032621
40
0.37559764356032621
40
0.51288371812225897
40
0.51288371812225897
40
0.51288371812225897
40
0.65742775562450984
40
0.65742775562450984
40
0.65742775562450984
40
0.8048801217787529
40
0.8048801217787529
40
0.8048801217787529
40
0.95856385460297266
40
0.95856385460297266
40
0.95856385460297266
40
1
40
1
40
1
40
1
10
3.5387386563330185
20
6.2917584939134583
30
0
10
2.3966292278760237
20
7.9377011583357104
30
0
10
0.40286702459820023
20
9.1589533796851512
30
0
10
-1.8674521922824825
20
9.5067363209407532
30
0
10
-4.3086319030685534
20
9.8806928349137841
30
0
10
-7.0386588381578967
20
9.2494644784507631
30
0
10
-9.3090238908169276
20
7.7010650771201004
30
0
10
-11.687958338490763
20
6.0786208493652172
30
0
10
-13.544244005863904
20
3.4697307767594716
30
0
10
-14.377350820778522
20
0.44445164629801925
30
0
10
-15.242751696001005
20
-2.69809761680213
30
0
10
-15.001977482248304
20
-6.2653561293958093
30
0
10
-13.634791774022556
20
-9.4888069558983812
30
0
10
-12.195326461077261
20
-12.882673366890106
30
0
10
-9.5182597014173371
20
-15.873706505391175
30
0
10
-6.1003846904858037
20
-17.800440240645216
30
0
10
-2.6137396078516217
20
-19.76594122651596
30
0
10
1.6222041658794928
20
-20.615403486094518
30
0
10
5.8173637212232796
20
-20.124252329549588
30
0
10
10.189811563694708
20
-19.612345026279868
30
0
10
14.495143740720863
20
-17.647426645105128
30
0
10
17.910122065246274
20
-14.534831777036102
30
0
10
18.830867129036342
20
-13.695615217513391
30
0
10
19.687948088878343
20
-12.776121610967845
30
0
10
20.470188653565238
20
-11.78661033426809
30
0
0
ARC
5
104
100
AcDbEntity
8
0
100
AcDbCircle
10
3.6952499999999979
20
-6.4003607466688948
30
0
40
0.1904999999999995
210
0
220
0
230
1
100
AcDbArc
50
94.756541413378855
51
274.75654141337861
0
SPLINE
5
105
100
AcDbEntity
8
0
100
AcDbSpline
70
0
71
3
72
29
73
25
74
0
42
0.000000001
43
0.0000000001
44
0.0000000001
40
0
40
0
40
0
40
0
40
0.11730330156669712
40
0.11730330156669712
40
0.11730330156669712
40
0.24343465696483468
40
0.24343465696483468
40
0.24343465696483468
40
0.37559764359459791
40
0.37559764359459791
40
0.37559764359459791
40
0.51288371807961475
40
0.51288371807961475
40
0.51288371807961475
40
0.65742775550827259
40
0.65742775550827259
40
0.65742775550827259
40
0.80488012161612099
40
0.80488012161612099
40
0.80488012161612099
40
0.95856385256971044
40
0.95856385256971044
40
0.95856385256971044
40
1
40
1
40
1
40
1
10
3.6794533620366385
20
-6.2105168206953358
30
0
10
5.6759362365241
20
-6.0443923739605045
30
0
10
7.7304527857271985
20
-4.928369767977169
30
0
10
9.1668012562416514
20
-3.1361071227419846
30
0
10
10.711246953765517
20
-1.2089617342174326
30
0
10
11.529600629403161
20
1.4709251245525272
30
0
10
11.323829938172656
20
4.2113186382363423
30
0
10
11.108219243844895
20
7.0827584175525633
30
0
10
9.7769969984448597
20
9.9947939980102323
30
0
10
7.5735818251232878
20
12.228925228504332
30
0
10
5.2847547690773355
20
14.54965900079821
30
0
10
2.0750311704521645
20
16.124771670482779
30
0
10
-1.4001519851647166
20
16.552479529164955
30
0
10
-5.0590591685859287
20
17.002799206275654
30
0
10
-8.9879032278839848
20
16.179907955917649
30
0
10
-12.365441093554798
20
14.183308239957045
30
0
10
-15.810937419598847
20
12.146535519851193
30
0
10
-18.664565203616846
20
8.9028317355440567
30
0
10
-20.336795604636144
20
5.0241414119750036
30
0
10
-22.07969477828992
20
0.98153690264018212
30
0
10
-22.530691646773221
20
-3.7294492589349311
30
0
10
-21.542594630488257
20
-8.243204625712595
30
0
10
-21.276184299426099
20
-9.4602015822644994
30
0
10
-20.908419944152918
20
-10.662202330251953
30
0
10
-20.442598300760647
20
-11.834398227129356
30
0
0
ARC
5
106
100
AcDbEntity
8
0
100
AcDbCircle
10
-20.6196318514056
20
-11.904749999999982
30
0
40
0.19050000000000139
210
0
220
0
230
1
100
AcDbArc
50
-158.32750728083619
51
21.672492719164229
0
SPLINE
5
107
100
AcDbEntity
8
0
100
AcDbSpline
70
0
71
3
72
29
73
25
74
0
42
0.000000001
43
0.0000000001
44
0.0000000001
40
-1
40
-1
40
-1
40
-1
40
-0.95454373345635879
40
-0.95454373345635879
40
-0.95454373345635879
40
-0.80156380693418094
40
-0.80156380693418094
40
-0.80156380693418094
40
-0.65475404530600489
40
-0.65475404530600489
40
-0.65475404530600489
40
-0.51086696042144208
40
-0.51086696042144208
40
-0.51086696042144208
40
-0.37426075866115949
40
-0.37426075866115949
40
-0.37426075866115949
40
-0.24276946470565325
40
-0.24276946470565325
40
-0.24276946470565325
40
-0.11727666073948734
40
-0.11727666073948734
40
-0.11727666073948734
40
0
40
0
40
0
40
0
10
-20.796665402050557
20
-11.975101772870609
30
0
10
-21.315979516181265
20
-10.668297156963312
30
0
10
-21.71550288644255
20
-9.3245094273100015
30
0
10
-21.990708834677477
20
-7.9641401458764278
30
0
10
-22.916895451852149
20
-3.3859112559842859
30
0
10
-22.39124227539547
20
1.3714866924325535
30
0
10
-20.56998634691206
20
5.4405632040339293
30
0
10
-18.822187437583981
20
9.3455209739567984
30
0
10
-15.889051880456451
20
12.596944090645126
30
0
10
-12.367476112017762
20
14.623179917662462
30
0
10
-8.9160075863478134
20
16.609077607331013
30
0
10
-4.9166346507970413
20
17.40423051463096
30
0
10
-1.197040131015715
20
16.910602697850937
30
0
10
2.3343378230469565
20
16.441953123167853
30
0
10
5.5917543366184166
20
14.812702761070828
30
0
10
7.9132682157516063
20
12.426614595262704
30
0
10
10.147858300018498
20
10.129868061275902
30
0
10
11.496610180408462
20
7.1446276945826304
30
0
10
11.707038077667347
20
4.1950789066959997
30
0
10
11.907866482844174
20
1.3800853303749023
30
0
10
11.063443572138368
20
-1.3794279947269918
30
0
10
9.4630876406947415
20
-3.3756440265247436
30
0
10
7.9675086616407551
20
-5.2411657371320608
30
0
10
5.8203726112552578
20
-6.4146907151854018
30
0
10
3.7110466379633578
20
-6.5902046726424546
30
0
0
ARC
5
108
100
AcDbEntity
8
0
100
AcDbCircle
10
2.9837243786801082e-15
20
23.8095
30
0
40
0.19049999999999884
210
0
220
-0
230
1
100
AcDbArc
50
81.672492724137001
51
261.67249272413716
0
SPLINE
5
109
100
AcDbEntity
8
0
100
AcDbSpline
70
0
71
3
72
29
73
25
74
0
42
0.000000001
43
0.0000000001
44
0.0000000001
40
-1
40
-1
40
-1
40
-1
40
-0.9545437357119706
40
-0.9545437357119706
40
-0.9545437357119706
40
-0.80156380723562393
40
-0.80156380723562393
40
-0.80156380723562393
40
-0.65475404541946092
40
-0.65475404541946092
40
-0.65475404541946092
40
-0.51086696054911573
40
-0.51086696054911573
40
-0.51086696054911573
40
-0.37426075874786835
40
-0.37426075874786835
40
-0.37426075874786835
40
-0.24276946473932659
40
-0.24276946473932659
40
-0.24276946473932659
40
-0.11727666076834002
40
-0.11727666076834002
40
-0.11727666076834002
40
0
40
0
40
0
40
0
10
0.027590352798884117
20
23.997991438618396
30
0
10
1.418973336064111
20
23.794328356262895
30
0
10
2.7824892659787914
20
23.468431901655048
30
0
10
4.0982065358458284
20
23.026582636771398
30
0
10
8.5261624400963836
20
21.539569350529394
30
0
10
12.383363400677872
20
18.705641351139075
30
0
10
14.996659103596704
20
15.093849151258985
30
0
10
17.50455228619834
20
11.627732008474094
30
0
10
18.853799530770747
20
7.4618505400002118
30
0
10
18.847783348828923
20
3.3989585442922694
30
0
10
18.841886936553948
20
-0.58304972391482246
30
0
10
17.530823088596325
20
-4.4441847394330729
30
0
10
15.2435316012411
20
-7.4186341781985918
30
0
10
13.071980187982049
20
-10.242572411749899
30
0
10
10.032299728394293
20
-12.24895268450495
30
0
10
6.8051298208052486
20
-13.066398597875811
30
0
10
3.6987939331293589
20
-13.853237112627248
30
0
10
0.43912399731817514
20
-13.528670321978826
30
0
10
-2.2204741327117281
20
-12.236131832672946
30
0
10
-4.7587442842836172
20
-11.002557545595952
30
0
10
-6.7263414710559299
20
-8.8915091910659871
30
0
10
-7.6549373008104116
20
-6.5074522834623192
30
0
10
-8.5227370046260145
20
-4.2794820384903911
30
0
10
-8.4654714226404586
20
-1.8332451836433128
30
0
10
-7.5628079816270608
20
0.081241673220141586
30
0
0
ARC
5
110
100
AcDbEntity
8
0
100
AcDbCircle
10
-7.3904999999999994
20
1.7347234759768071e-17
30
0
40
0.19049999999999995
210
0
220
0
230
1
100
AcDbArc
50
-25.243458587956923
51
154.75654141204319
0
SPLINE
5
111
100
AcDbEntity
8
0
100
AcDbSpline
70
0
71
3
72
29
73
25
74
0
42
0.000000001
43
0.0000000001
44
0.0000000001
40
0
40
0
40
0
40
0
40
0.11730330155938758
40
0.11730330155938758
40
0.11730330155938758
40
0.2434346568898117
40
0.2434346568898117
40
0.2434346568898117
40
0.37559764355129588
40
0.37559764355129588
40
0.37559764355129588
40
0.51288371802748389
40
0.51288371802748389
40
0.51288371802748389
40
0.65742775555485533
40
0.65742775555485533
40
0.65742775555485533
40
0.80488012162298017
40
0.80488012162298017
40
0.80488012162298017
40
0.95856385442379843
40
0.95856385442379843
40
0.95856385442379843
40
1
40
1
40
1
40
1
10
-7.2181920183729389
20
-0.081241673220141586
30
0
10
-8.0725654644585045
20
-1.8933087838008089
30
0
10
-8.1333198111762144
20
-4.230583610914417
30
0
10
-7.2993490655606319
20
-6.3706291975771601
30
0
10
-6.4026150516662073
20
-8.6717310994533605
30
0
10
-4.4909417922236115
20
-10.720389600371654
30
0
10
-2.0148060493616855
20
-11.912383711583615
30
0
10
0.57973909207903407
20
-13.161379263942315
30
0
10
3.7672470048355251
20
-13.464524772663914
30
0
10
6.8037689933186618
20
-12.673376873226871
30
0
10
9.9579969234670216
20
-11.851561384734685
30
0
10
12.926946308737028
20
-9.8594155449156382
30
0
10
15.034943758059827
20
-7.0636725794554511
30
0
10
17.254385632154403
20
-4.1201258456863696
30
0
10
18.506162935453165
20
-0.30620145481530137
30
0
10
18.465825792246278
20
3.6171319998326585
30
0
10
18.424677037112339
20
7.6194057058824418
30
0
10
17.04236104948134
20
11.712571750607566
30
0
10
14.519431896942447
20
15.100110919671767
30
0
10
11.889883249516576
20
18.630808177322017
30
0
10
8.0355479292356264
20
21.376876025789851
30
0
10
3.6324725414232506
20
22.778036577000762
30
0
10
2.4453171448996414
20
23.155816915345699
30
0
10
1.2204718379290025
20
23.438323998042691
30
0
10
-0.027590352798875367
20
23.621008561381601
30
0
0
CIRCLE
5
112
100
AcDbEntity
8
0
100
AcDbCircle
10
0
20
0
30
0
40
3.2000000000000002
210
0
220
-0
230
1
0
CIRCLE
5
113
100
AcDbEntity
8
0
100
AcDbCircle
10
0
20
0
30
0
40
30
210
0
220
0
230
1
0
ENDSEC
0
SECTION
2
OBJECTS
0
DICTIONARY
5
C
100
AcDbDictionary
3
ACAD_GROUP
350
D
3
ACAD_MLINESTYLE
350
17
0
DICTIONARY
5
D
100
AcDbDictionary
0
DICTIONARY
5
1A
330
C
100
AcDbDictionary
0
DICTIONARY
5
17
100
AcDbDictionary
0
ENDSEC
0
EOF
