0
SECTION
2
HEADER
9
$INSUNITS
70
4
9
$ACADVER
1
AC1014
9
$HANDSEED
5
FFFF
0
ENDSEC
0
SECTION
2
TABLES
0
TABLE
2
VPORT
5
8
100
AcDbSymbolTable
0
ENDTAB
0
TABLE
2
LTYPE
5
5
100
AcDbSymbolTable
0
LTYPE
5
14
100
AcDbSymbolTableRecord
100
AcDbLinetypeTableRecord
2
BYBLOCK
70
0
0
LTYPE
5
15
100
AcDbSymbolTableRecord
100
AcDbLinetypeTableRecord
2
BYLAYER
70
0
0
LTYPE
5
16
100
AcDbSymbolTableRecord
100
AcDbLinetypeTableRecord
2
DASHED
70
0
3
Dashed __ __ __ __ __ __ __ __ __ __ __ __ __ _
72
65
73
2
40
0.75
49
0.5
74
0
49
-0.25
74
0
0
ENDTAB
0
TABLE
2
LAYER
5
2
100
AcDbSymbolTable
70
2
0
LAYER
5
50
100
AcDbSymbolTableRecord
100
AcDbLayerTableRecord
2
0
70
0
62
7
6
CONTINUOUS
0
ENDTAB
0
TABLE
2
STYLE
5
3
100
AcDbSymbolTable
70
1
0
STYLE
5
11
100
AcDbSymbolTableRecord
100
AcDbTextStyleTableRecord
2
STANDARD
70
0
0
ENDTAB
0
TABLE
2
VIEW
5
6
100
AcDbSymbolTable
70
0
0
ENDTAB
0
TABLE
2
UCS
5
7
100
AcDbSymbolTable
70
0
0
ENDTAB
0
TABLE
2
APPID
5
9
100
AcDbSymbolTable
70
2
0
APPID
5
12
100
AcDbSymbolTableRecord
100
AcDbRegAppTableRecord
2
ACAD
70
0
0
ENDTAB
0
TABLE
2
DIMSTYLE
5
A
100
AcDbSymbolTable
70
1
0
ENDTAB
0
TABLE
2
BLOCK_RECORD
5
1
100
AcDbSymbolTable
70
1
0
BLOCK_RECORD
5
1F
100
AcDbSymbolTableRecord
100
AcDbBlockTableRecord
2
*MODEL_SPACE
0
BLOCK_RECORD
5
1B
100
AcDbSymbolTableRecord
100
AcDbBlockTableRecord
2
*PAPER_SPACE
0
ENDTAB
0
ENDSEC
0
SECTION
2
BLOCKS
0
BLOCK
5
20
100
AcDbEntity
100
AcDbBlockBegin
2
*MODEL_SPACE
0
ENDBLK
5
21
100
AcDbEntity
100
AcDbBlockEnd
0
BLOCK
5
1C
100
AcDbEntity
100
AcDbBlockBegin
2
*PAPER_SPACE
0
ENDBLK
5
1D
100
AcDbEntity
100
AcDbBlockEnd
0
ENDSEC
0
SECTION
2
ENTITIES
0
CIRCLE
5
100
100
AcDbEntity
8
0
100
AcDbCircle
10
0
20
0
30
0
40
30
210
0
220
0
230
1
0
CIRCLE
5
101
100
AcDbEntity
8
0
100
AcDbCircle
10
0
20
0
30
0
40
3.2000000000000002
210
0
220
-0
230
1
0
ARC
5
102
100
AcDbEntity
8
0
100
AcDbCircle
10
-23.8095
20
5.4470317145671743e-15
30
0
40
0.19049999999999953
210
0
220
0
230
1
100
AcDbArc
50
173.73348522811835
51
353.73348522811852
0
SPLINE
5
103
100
AcDbEntity
8
0
100
AcDbSpline
70
0
71
3
72
35
73
31
74
0
42
0.000000001
43
0.0000000001
44
0.0000000001
40
-1
40
-1
40
-1
40
-1
40
-0.93816286701568907
40
-0.93816286701568907
40
-0.93816286701568907
40
-0.82041445030392701
40
-0.82041445030392701
40
-0.82041445030392701
40
-0.70742885234478625
40
-0.70742885234478625
40
-0.70742885234478625
40
-0.59581562016670653
40
-0.59581562016670653
40
-0.59581562016670653
40
-0.48820929373537103
40
-0.48820929373537103
40
-0.48820929373537103
40
-0.38298504001673583
40
-0.38298504001673583
40
-0.38298504001673583
40
-0.28037579838156657
40
-0.28037579838156657
40
-0.28037579838156657
40
-0.18352782319677755
40
-0.18352782319677755
40
-0.18352782319677755
40
-0.090830148096886623
40
-0.090830148096886623
40
-0.090830148096886623
40
0
40
0
40
0
40
0
10
-23.99886174677464
20
0.020793721611504078
30
0
10
-23.723107230803443
20
2.5320015660229558
30
0
10
-23.048697441802638
20
4.9740788489234298
30
0
10
-22.015377853633321
20
7.229659130901446
30
0
10
-20.04776164000555
20
11.524667553050737
30
0
10
-16.754740542621366
20
15.111580086333912
30
0
10
-12.786728150968695
20
17.354035163684394
30
0
10
-8.9792183321519694
20
19.505784927175238
30
0
10
-4.5694405617365144
20
20.409399722611852
30
0
10
-0.38660242108425774
20
19.943795261931886
30
0
10
3.7454293864101738
20
19.483846209028567
30
0
10
7.6336885953952009
20
17.687981813138713
30
0
10
10.53359760836468
20
14.956828893629964
30
0
10
13.32940012909887
20
12.323724136645142
30
0
10
15.190051752967275
20
8.8358986220257272
30
0
10
15.786612512661035
20
5.220648661297453
30
0
10
16.369967254137634
20
1.6854292021822703
30
0
10
15.738554776510753
20
-1.9498250641402637
30
0
10
14.082334688574543
20
-4.9160683371825389
30
0
10
12.467274650624651
20
-7.8085951263593509
30
0
10
9.8866004438383204
20
-10.042676195942661
30
0
10
6.9736069327454224
20
-11.148817204903544
30
0
10
4.2241711238457214
20
-12.192851010041846
30
0
10
1.1997035499932251
20
-12.222441914528829
30
0
10
-1.3791881240208126
20
-11.289186746354877
30
0
10
-3.8475645878491802
20
-10.395925073102358
30
0
10
-5.8846069772169098
20
-8.6244562214822942
30
0
10
-7.0001423869735557
20
-6.4815743540226647
30
0
10
-8.0932037433272122
20
-4.3818639010285718
30
0
10
-8.2809658588398172
20
-1.9465213536089263
30
0
10
-7.5700992002640701
20
0.063516747905622714
30
0
0
ARC
5
104
100
AcDbEntity
8
0
100
AcDbCircle
10
-7.3904999999999994
20
-1.9081958235744878e-16
30
0
40
0.19049999999999986
210
0
220
0
230
1
100
AcDbArc
50
-19.47656346722718
51
160.52343653277259
0
SPLINE
5
105
100
AcDbEntity
8
0
100
AcDbSpline
70
0
71
3
72
35
73
31
74
0
42
0.000000001
43
0.0000000001
44
0.0000000001
40
0
40
0
40
0
40
0
40
0.091294094427041159
40
0.091294094427041159
40
0.091294094427041159
40
0.18461722665268851
40
0.18461722665268851
40
0.18461722665268851
40
0.28654007332110243
40
0.28654007332110243
40
0.28654007332110243
40
0.38988747895859321
40
0.38988747895859321
40
0.38988747895859321
40
0.49582124512243336
40
0.49582124512243336
40
0.49582124512243336
40
0.60411129447556666
40
0.60411129447556666
40
0.60411129447556666
40
0.71632108072436296
40
0.71632108072436296
40
0.71632108072436296
40
0.82989202544428609
40
0.82989202544428609
40
0.82989202544428609
40
0.94814730246823964
40
0.94814730246823964
40
0.94814730246823964
40
1
40
1
40
1
40
1
10
-7.2109007997359296
20
-0.063516747905622714
30
0
10
-7.8877523708708868
20
-1.9773741930938173
30
0
10
-7.7079279483442047
20
-4.3160770636058787
30
0
10
-6.6460684561257768
20
-6.3364714342252171
30
0
10
-5.5606088278849484
20
-8.4017696572986029
30
0
10
-3.5745711108182299
20
-10.111751030799859
30
0
10
-1.1653308150457313
20
-10.961001712533253
30
0
10
1.4659206592366536
20
-11.888510733641427
30
0
10
4.5735101892874388
20
-11.779884833071524
30
0
10
7.3445848918415182
20
-10.587716141407892
30
0
10
10.154390452594132
20
-9.3788847027952169
30
0
10
12.59477156412591
20
-7.0719053458114223
30
0
10
14.054746612205518
20
-4.153556826939619
30
0
10
15.551258831300848
20
-1.1621740469290716
30
0
10
16.0089857555636
20
2.4477918120485036
30
0
10
15.269099783663885
20
5.906240222241351
30
0
10
14.512756539067144
20
9.4416148491172862
30
0
10
12.512024226000138
20
12.796006928750579
30
0
10
9.6238787976851921
20
15.260926895929018
30
0
10
6.6311921833330159
20
17.815068705722915
30
0
10
2.7040658663898198
20
19.399178503327075
30
0
10
-1.4012426446581454
20
19.648737656160279
30
0
10
-5.5563505149528343
20
19.901324081090522
30
0
10
-9.8711383847789804
20
18.787458621706197
30
0
10
-13.527760329129567
20
16.465672328876472
30
0
10
-17.33520282304756
20
14.04812194285039
30
0
10
-20.408753615046464
20
10.333059328926659
30
0
10
-22.133698148869673
20
5.982500713580702
30
0
10
-22.890053631875148
20
4.0748632224433434
30
0
10
-23.392583766823421
20
2.051471928403247
30
0
10
-23.620138253225356
20
-0.02079372161149241
30
0
0
ARC
5
106
100
AcDbEntity
8
0
100
AcDbCircle
10
11.90475000000003
20
20.619631851405561
30
0
40
0.19050000000000422
210
0
220
-0
230
1
100
AcDbArc
50
53.73348523259633
51
233.73348523259673
0
SPLINE
5
107
100
AcDbEntity
8
0
100
AcDbSpline
70
0
71
3
72
35
73
31
74
0
42
0.000000001
43
0.0000000001
44
0.0000000001
40
-1
40
-1
40
-1
40
-1
40
-0.93816286769236501
40
-0.93816286769236501
40
-0.93816286769236501
40
-0.82041445028436311
40
-0.82041445028436311
40
-0.82041445028436311
40
-0.70742885236673292
40
-0.70742885236673292
40
-0.70742885236673292
40
-0.59581562019057632
40
-0.59581562019057632
40
-0.59581562019057632
40
-0.48820929376884159
40
-0.48820929376884159
40
-0.48820929376884159
40
-0.38298504002089073
40
-0.38298504002089073
40
-0.38298504002089073
40
-0.28037579838235871
40
-0.28037579838235871
40
-0.28037579838235871
40
-0.18352782316199587
40
-0.18352782316199587
40
-0.18352782316199587
40
-0.090830148041150555
40
-0.090830148041150555
40
-0.090830148041150555
40
0
40
0
40
0
40
0
10
12.017438764530128
20
20.773227073820458
30
0
10
14.054331271865369
20
19.278812752050744
30
0
10
15.832027325615243
20
17.473718123858916
30
0
10
17.268757347713411
20
15.451046996110964
30
0
10
20.004535674285901
20
11.599537145293166
30
0
10
21.464382518113368
20
6.954240925205875
30
0
10
21.422399385382668
20
2.3966138259105469
30
0
10
21.382114433291996
20
-1.9766612824518228
30
0
10
19.95977891677413
20
-6.2474482526919068
30
0
10
17.465134556704069
20
-9.6370901111671046
30
0
10
15.000791089137284
20
-12.985560099526365
30
0
10
11.50139729641084
20
-15.454959153501092
30
0
10
7.6861949802054452
20
-16.600777568167175
30
0
10
4.0079581099156361
20
-17.705461197022178
30
0
10
0.057086798673371963
20
-17.572920014281411
30
0
10
-3.3720918882137338
20
-16.281931807519232
30
0
10
-6.7253591197507028
20
-15.019522103822503
30
0
10
-9.5578754259637044
20
-12.65507572435958
30
0
10
-11.298607410821193
20
-9.7376254166544491
30
0
10
-12.996079072535325
20
-6.8926790005098235
30
0
10
-13.640512929598934
20
-3.5407090436368915
30
0
10
-13.141962387979715
20
-0.46491215738420882
30
0
10
-12.671404281031336
20
2.4381860028384934
30
0
10
-11.184796968183932
20
5.0722472078245122
30
0
10
-9.087128446139312
20
6.8390053270811375
30
0
10
-7.0793529121100569
20
8.5300512140325448
30
0
10
-4.5266946890311326
20
9.4084472452641208
30
0
10
-2.1131368492608997
20
9.3030883140486136
30
0
10
0.25179642017027715
20
9.1998519890028536
30
0
10
2.4547459890415002
20
8.1447874774037547
30
0
10
3.8400567173830824
20
6.5241398426453001
30
0
0
ARC
5
108
100
AcDbEntity
8
0
100
AcDbCircle
10
3.6952500000000033
20
6.4003607466688912
30
0
40
0.19050000000000014
210
0
220
0
230
1
100
AcDbArc
50
-139.4765634667659
51
40.523436533234396
0
SPLINE
5
109
100
AcDbEntity
8
0
100
AcDbSpline
70
0
71
3
72
35
73
31
74
0
42
0.000000001
43
0.0000000001
44
0.0000000001
40
0
40
0
40
0
40
0
40
0.091294094378648091
40
0.091294094378648091
40
0.091294094378648091
40
0.18461722663449454
40
0.18461722663449454
40
0.18461722663449454
40
0.28654007330518272
40
0.28654007330518272
40
0.28654007330518272
40
0.38988747896133141
40
0.38988747896133141
40
0.38988747896133141
40
0.49582124512767456
40
0.49582124512767456
40
0.49582124512767456
40
0.60411129449030065
40
0.60411129449030065
40
0.60411129449030065
40
0.71632108069387479
40
0.71632108069387479
40
0.71632108069387479
40
0.8298920254103257
40
0.8298920254103257
40
0.8298920254103257
40
0.94814730321069651
40
0.94814730321069651
40
0.94814730321069651
40
1
40
1
40
1
40
1
10
3.5504432826169241
20
6.2765816506924832
30
0
10
2.2314199021123695
20
7.8196810276567472
30
0
10
0.11613159465780398
20
8.833299944584569
30
0
10
-2.1645110007038944
20
8.9238998352638905
30
0
10
-4.4958415429896075
20
9.0165133349407007
30
0
10
-6.9697477120448257
20
8.1515449062127292
30
0
10
-8.9098405253212949
20
6.4897069468811335
30
0
10
-11.028712637247153
20
4.6747308372481156
30
0
10
-12.488434613234551
20
1.9291664095423484
30
0
10
-12.841523592273209
20
-1.0667390244783432
30
0
10
-13.199547638317814
20
-4.104517739564403
30
0
10
-12.421835464924653
20
-7.3714394562420704
30
0
10
-10.62445903415226
20
-10.094989196670392
30
0
10
-8.7821016636747089
20
-12.886698185523688
30
0
10
-5.8846429849938664
20
-15.088084259410625
30
0
10
-2.5195958180179892
20
-16.176548416854764
30
0
10
0.92030004339394067
20
-17.289223266477212
30
0
10
4.8256549555246471
20
-17.233734296776639
30
0
10
8.4044109797898248
20
-15.964986969184453
30
0
10
12.112705977540026
20
-14.650315240679273
30
0
10
15.448148461730739
20
-12.0413789864504
30
0
10
17.716927283010811
20
-8.6108571037361941
30
0
10
20.013227479305513
20
-5.1387213455994418
30
0
10
21.205985630702525
20
-0.84507270909335297
30
0
10
21.023570691926068
20
3.4825479330129978
30
0
10
20.833631889234901
20
7.9886650787725149
30
0
10
19.153068664377479
20
12.507969481184746
30
0
10
16.247846615833218
20
16.177094588936328
30
0
10
14.973961840533214
20
17.785936369473472
30
0
10
13.47291866454454
20
19.232835855844183
30
0
10
11.792061235469934
20
20.466036628990672
30
0
0
ARC
5
110
100
AcDbEntity
8
0
100
AcDbCircle
10
3.6952499999999988
20
-6.4003607466688948
30
0
40
0.19050000000000045
210
0
220
0
230
1
100
AcDbArc
50
100.52343653358571
51
280.5234365335856
0
SPLINE
5
111
100
AcDbEntity
8
0
100
AcDbSpline
70
0
71
3
72
35
73
31
74
0
42
0.000000001
43
0.0000000001
44
0.0000000001
40
0
40
0
40
0
40
0
40
0.09129409432892327
40
0.09129409432892327
40
0.09129409432892327
40
0.18461722657061941
40
0.18461722657061941
40
0.18461722657061941
40
0.28654007324929198
40
0.28654007324929198
40
0.28654007324929198
40
0.38988747890208175
40
0.38988747890208175
40
0.38988747890208175
40
0.4958212450459622
40
0.4958212450459622
40
0.4958212450459622
40
0.60411129440445188
40
0.60411129440445188
40
0.60411129440445188
40
0.71632108062100441
40
0.71632108062100441
40
0.71632108062100441
40
0.8298920253589408
40
0.8298920253589408
40
0.8298920253589408
40
0.94814730184995655
40
0.94814730184995655
40
0.94814730184995655
40
1
40
1
40
1
40
1
10
3.6604575171173477
20
-6.2130649027885232
30
0
10
5.6563324672916595
20
-5.8423068357584587
30
0
10
7.5917963518562139
20
-4.5172228849319609
30
0
10
8.810579456526817
20
-2.5874284074046932
30
0
10
10.056450371696027
20
-0.6147436839360515
30
0
10
10.544318824534484
20
1.9602061186256892
30
0
10
10.075171342739271
20
4.4712947599996413
30
0
10
9.5627919818230662
20
7.2137798914294926
30
0
10
7.9149244287750147
20
9.8507184198015114
30
0
10
5.4969387057077892
20
11.654455163477584
30
0
10
3.045157191281417
20
13.483402440894434
30
0
10
-0.17293609363740026
20
14.443344801434389
30
0
10
-3.4302875725669701
20
14.248546023712622
30
0
10
-6.7691571613850767
20
14.048872233800374
30
0
10
-10.124342763981771
20
12.640292450472188
30
0
10
-12.749503959461384
20
10.270308199584406
30
0
10
-15.433056577107095
20
7.8476084235856742
30
0
10
-17.337679177358247
20
4.4377273752578343
30
0
10
-18.028289774653796
20
0.70406008112885898
30
0
10
-18.743898161024376
20
-3.1647534558473476
30
0
10
-18.152214331956579
20
-7.3577995078199399
30
0
10
-16.315684645276672
20
-11.037880545051213
30
0
10
-14.456876972717936
20
-14.762602730190418
30
0
10
-11.334847254780545
20
-17.942385909791241
30
0
10
-7.495810371287341
20
-19.948220261249912
30
0
10
-3.4984290941986944
20
-22.036786983788495
30
0
10
1.2556848767636368
20
-22.841028747237996
30
0
10
5.8858514056911506
20
-22.159595244096
30
0
10
7.9160917005261382
20
-21.860799564138048
30
0
10
9.9196650555405856
20
-21.284307776308932
30
0
10
11.8280770177757
20
-20.445242907384383
30
0
0
ARC
5
112
100
AcDbEntity
8
0
100
AcDbCircle
10
11.904749999999975
20
-20.619631851405607
30
0
40
0.19049999999999989
210
-0
220
0
230
1
100
AcDbArc
50
-66.266514774594228
51
113.73348522540202
0
SPLINE
5
113
100
AcDbEntity
8
0
100
AcDbSpline
70
0
71
3
72
35
73
31
74
0
42
0.000000001
43
0.0000000001
44
0.0000000001
40
-1
40
-1
40
-1
40
-1
40
-0.93816286644879221
40
-0.93816286644879221
40
-0.93816286644879221
40
-0.82041445022096415
40
-0.82041445022096415
40
-0.82041445022096415
40
-0.70742885225031293
40
-0.70742885225031293
40
-0.70742885225031293
40
-0.59581562009224742
40
-0.59581562009224742
40
-0.59581562009224742
40
-0.48820929366047899
40
-0.48820929366047899
40
-0.48820929366047899
40
-0.38298503992606958
40
-0.38298503992606958
40
-0.38298503992606958
40
-0.28037579829702569
40
-0.28037579829702569
40
-0.28037579829702569
40
-0.18352782309029642
40
-0.18352782309029642
40
-0.18352782309029642
40
-0.09083014800248701
40
-0.09083014800248701
40
-0.09083014800248701
40
0
40
0
40
0
40
0
10
11.981422982224259
20
-20.794020795426821
30
0
10
9.6687759156967523
20
-21.810814310738891
30
0
10
7.2166700323071673
20
-22.447796944827516
30
0
10
4.746620390821036
20
-22.680706067016185
30
0
10
0.043225899738165152
20
-23.124204636367217
30
0
10
-4.7096420003535586
20
-22.065820974191041
30
0
10
-8.635671242733034
20
-19.750648986973104
30
0
10
-12.402896109199418
20
-17.52912363860159
30
0
10
-15.390338361077241
20
-14.161951460343946
30
0
10
-17.078532138400785
20
-10.306705139118824
30
0
10
-18.746220475503353
20
-6.4982860980548462
30
0
10
-19.135085889233107
20
-2.233022649394016
30
0
10
-18.219792584290982
20
1.6439486830318184
30
0
10
-17.337358232663821
20
5.3817370679502581
30
0
10
-15.247138543508665
20
8.7370213980997473
30
0
10
-12.414520615333078
20
11.061283149870043
30
0
10
-9.6446081251415237
20
13.334092903937226
30
0
10
-6.1806793413627927
20
14.604900789531186
30
0
10
-2.783727268766345
20
14.653693753617814
30
0
10
0.52880443042828684
20
14.70127412472122
30
0
10
3.7539124931679395
20
13.583385235744016
30
0
10
6.1683554611905587
20
11.613729357348214
30
0
10
8.4472331625820196
20
9.7546650016608734
30
0
10
9.9850934229851145
20
7.1501947004380009
30
0
10
10.466316574007731
20
4.4501814122717169
30
0
10
10.926917502452611
20
1.8658738520470037
30
0
10
10.411301667608043
20
-0.78399103053713759
30
0
10
9.11327923662245
20
-2.8215139664409379
30
0
10
7.8414073217628033
20
-4.8179880921543914
30
0
10
5.8262198684144213
20
-6.1982661252077289
30
0
10
3.7300424828826491
20
-6.5876565905492672
30
0
0
ENDSEC
0
SECTION
2
OBJECTS
0
DICTIONARY
5
C
100
AcDbDictionary
3
ACAD_GROUP
350
D
3
ACAD_MLINESTYLE
350
17
0
DICTIONARY
5
D
100
AcDbDictionary
0
DICTIONARY
5
1A
330
C
100
AcDbDictionary
0
DICTIONARY
5
17
100
AcDbDictionary
0
ENDSEC
0
EOF
