0
SECTION
2
HEADER
9
$INSUNITS
70
4
9
$ACADVER
1
AC1014
9
$HANDSEED
5
FFFF
0
ENDSEC
0
SECTION
2
TABLES
0
TABLE
2
VPORT
5
8
100
AcDbSymbolTable
0
ENDTAB
0
TABLE
2
LTYPE
5
5
100
AcDbSymbolTable
0
LTYPE
5
14
100
AcDbSymbolTableRecord
100
AcDbLinetypeTableRecord
2
BYBLOCK
70
0
0
LTYPE
5
15
100
AcDbSymbolTableRecord
100
AcDbLinetypeTableRecord
2
BYLAYER
70
0
0
LTYPE
5
16
100
AcDbSymbolTableRecord
100
AcDbLinetypeTableRecord
2
DASHED
70
0
3
Dashed __ __ __ __ __ __ __ __ __ __ __ __ __ _
72
65
73
2
40
0.75
49
0.5
74
0
49
-0.25
74
0
0
ENDTAB
0
TABLE
2
LAYER
5
2
100
AcDbSymbolTable
70
2
0
LAYER
5
50
100
AcDbSymbolTableRecord
100
AcDbLayerTableRecord
2
0
70
0
62
7
6
CONTINUOUS
0
ENDTAB
0
TABLE
2
STYLE
5
3
100
AcDbSymbolTable
70
1
0
STYLE
5
11
100
AcDbSymbolTableRecord
100
AcDbTextStyleTableRecord
2
STANDARD
70
0
0
ENDTAB
0
TABLE
2
VIEW
5
6
100
AcDbSymbolTable
70
0
0
ENDTAB
0
TABLE
2
UCS
5
7
100
AcDbSymbolTable
70
0
0
ENDTAB
0
TABLE
2
APPID
5
9
100
AcDbSymbolTable
70
2
0
APPID
5
12
100
AcDbSymbolTableRecord
100
AcDbRegAppTableRecord
2
ACAD
70
0
0
ENDTAB
0
TABLE
2
DIMSTYLE
5
A
100
AcDbSymbolTable
70
1
0
ENDTAB
0
TABLE
2
BLOCK_RECORD
5
1
100
AcDbSymbolTable
70
1
0
BLOCK_RECORD
5
1F
100
AcDbSymbolTableRecord
100
AcDbBlockTableRecord
2
*MODEL_SPACE
0
BLOCK_RECORD
5
1B
100
AcDbSymbolTableRecord
100
AcDbBlockTableRecord
2
*PAPER_SPACE
0
ENDTAB
0
ENDSEC
0
SECTION
2
BLOCKS
0
BLOCK
5
20
100
AcDbEntity
100
AcDbBlockBegin
2
*MODEL_SPACE
0
ENDBLK
5
21
100
AcDbEntity
100
AcDbBlockEnd
0
BLOCK
5
1C
100
AcDbEntity
100
AcDbBlockBegin
2
*PAPER_SPACE
0
ENDBLK
5
1D
100
AcDbEntity
100
AcDbBlockEnd
0
ENDSEC
0
SECTION
2
ENTITIES
0
ARC
5
100
100
AcDbEntity
8
0
100
AcDbCircle
10
3.6952499999999984
20
-6.4003607466688939
30
0
40
0.19049999999999903
210
0
220
0
230
1
100
AcDbArc
50
106.73045702423757
51
286.73045581681924
0
SPLINE
5
101
100
AcDbEntity
8
0
100
AcDbSpline
70
0
71
3
72
47
73
43
74
0
42
0.000000001
43
0.0000000001
44
0.0000000001
40
0
40
0
40
0
40
0
40
0.060161046615334751
40
0.060161046615334751
40
0.060161046615334751
40
0.12362278126640751
40
0.12362278126640751
40
0.12362278126640751
40
0.1889301919528103
40
0.1889301919528103
40
0.1889301919528103
40
0.25588302913597566
40
0.25588302913597566
40
0.25588302913597566
40
0.32432499617341376
40
0.32432499617341376
40
0.32432499617341376
40
0.39413150287311283
40
0.39413150287311283
40
0.39413150287311283
40
0.46520071925060513
40
0.46520071925060513
40
0.46520071925060513
40
0.53850939595655489
40
0.53850939595655489
40
0.53850939595655489
40
0.61268542060528397
40
0.61268542060528397
40
0.61268542060528397
40
0.68770422072596438
40
0.68770422072596438
40
0.68770422072596438
40
0.76577816554447331
40
0.76577816554447331
40
0.76577816554447331
40
0.84313726627607544
40
0.84313726627607544
40
0.84313726627607544
40
0.92424616100749346
40
0.92424616100749346
40
0.92424616100749346
40
1
40
1
40
1
40
1
10
3.6404108347121849
20
-6.2179246867724594
30
0
10
5.5314718804550189
20
-5.6494832869981702
30
0
10
7.240469039023897
20
-4.2227121447402469
30
0
10
8.2238601001840514
20
-2.3128223753587855
30
0
10
9.2612041307926383
20
-0.29814802083400371
30
0
10
9.4754389137235826
20
2.2253221086226809
30
0
10
8.7444892252825284
20
4.549499393102848
30
0
10
7.9922811150475326
20
6.941271399653079
30
0
10
6.2505164314058188
20
9.0953617965158102
30
0
10
3.9316854098320198
20
10.411948021412801
30
0
10
1.554431217529038
20
11.76170576294089
30
0
10
-1.4046754745527896
20
12.219762850496899
30
0
10
-4.2259933147379662
20
11.622070781619849
30
0
10
-7.1100614251278005
20
11.011085159536208
30
0
10
-9.8252907615119174
20
9.3039336227303693
30
0
10
-11.71366679345712
20
6.8571406478804509
30
0
10
-13.639691714006632
20
4.3615655265779338
30
0
10
-14.69161515604662
20
1.1170244630318265
30
0
10
-14.59273511484996
20
-2.1701319846348879
30
0
10
-14.492066461232156
20
-5.5167488530435431
30
0
10
-13.200539758587704
20
-8.8837274789382583
30
0
10
-10.953088599288712
20
-11.539193101879048
30
0
10
-8.6348180618125081
20
-14.278335036720778
30
0
10
-5.3150705510910834
20
-16.241783875683097
30
0
10
-1.6710146123228522
20
-16.979935904830946
30
0
10
2.0161557920705224
20
-17.72682134280171
30
0
10
6.0116764211355971
20
-17.215776854199287
30
0
10
9.5038678240852033
20
-15.510536751397673
30
0
10
13.035736916311134
20
-13.785921998374038
30
0
10
16.032628086813748
20
-10.850904822873378
30
0
10
17.885330687974129
20
-7.2494490165478673
30
0
10
19.813484702906557
20
-3.5013237274599152
30
0
10
20.489797193544256
20
0.94748513020442959
30
0
10
19.741541153392664
20
5.2198487971867182
30
0
10
19.000136136422213
20
9.4530947545213468
30
0
10
16.866717560743709
20
13.490690566654733
30
0
10
13.705652718218612
20
16.568022370998655
30
0
10
10.391362956227939
20
19.794520339714204
30
0
10
5.9635375453249351
20
21.946187466134358
30
0
10
1.2606778676620296
20
22.573909052957145
30
0
10
-3.1316847210002416
20
23.160186552826399
30
0
10
-7.7366186405385964
20
22.423766174933839
30
0
10
-11.82181218577713
20
20.448133836921656
30
0
0
ARC
5
102
100
AcDbEntity
8
0
100
AcDbCircle
10
-11.904749999999977
20
20.6196318514056
30
0
40
0.19049999999999845
210
0
220
0
230
1
100
AcDbArc
50
115.80878283244373
51
295.80878283244465
0
SPLINE
5
103
100
AcDbEntity
8
0
100
AcDbSpline
70
0
71
3
72
47
73
43
74
0
42
0.000000001
43
0.0000000001
44
0.0000000001
40
-1
40
-1
40
-1
40
-1
40
-0.92263818343996007
40
-0.92263818343996007
40
-0.92263818343996007
40
-0.84199823026903509
40
-0.84199823026903509
40
-0.84199823026903509
40
-0.76497549361389705
40
-0.76497549361389705
40
-0.76497549361389705
40
-0.68663399148519599
40
-0.68663399148519599
40
-0.68663399148519599
40
-0.61198044862457379
40
-0.61198044862457379
40
-0.61198044862457379
40
-0.5381790175898038
40
-0.5381790175898038
40
-0.5381790175898038
40
-0.46525544461062829
40
-0.46525544461062829
40
-0.46525544461062829
40
-0.39458394280543702
40
-0.39458394280543702
40
-0.39458394280543702
40
-0.32518500635628744
40
-0.32518500635628744
40
-0.32518500635628744
40
-0.25716046745321702
40
-0.25716046745321702
40
-0.25716046745321702
40
-0.19063440604873089
40
-0.19063440604873089
40
-0.19063440604873089
40
-0.12576159706093631
40
-0.12576159706093631
40
-0.12576159706093631
40
-0.06273901548981925
40
-0.06273901548981925
40
-0.06273901548981925
40
0
40
0
40
0
40
0
10
-11.987687814222825
20
20.791129865889548
30
0
10
-7.7487841547706395
20
22.841097646998175
30
0
10
-2.9560827833868428
20
23.577418716310543
30
0
10
1.5952023875065446
20
22.91182512807136
30
0
10
6.3393441278123728
20
22.218027616933288
30
0
10
10.79019171679651
20
19.996104110282822
30
0
10
14.112876930172785
20
16.702053844898707
30
0
10
17.286518507510351
20
13.555762755397591
30
0
10
19.416338211200991
20
9.4487246028547212
30
0
10
20.139894724020841
20
5.1512792289716476
30
0
10
20.8758398040186
20
0.78025398984728822
30
0
10
20.149407808912208
20
-3.7644699813686993
30
0
10
18.14257312125131
20
-7.5805319470229646
30
0
10
16.230211023274773
20
-11.216951185496972
30
0
10
13.167500382644509
20
-14.172382571909449
30
0
10
9.5692428782996224
20
-15.902225196945256
30
0
10
6.012056670164192
20
-17.612323020848073
30
0
10
1.9510670434555739
20
-18.113859310070797
30
0
10
-1.7970096605114005
20
-17.343074287924384
30
0
10
-5.5005034982462391
20
-16.581457649525223
30
0
10
-8.8754720738034933
20
-14.580869793056996
30
0
10
-11.238592228601266
20
-11.791611049589575
30
0
10
-13.528733035790811
20
-9.0884919308871144
30
0
10
-14.853813918249594
20
-5.6619364969734356
30
0
10
-14.971446920829845
20
-2.2471684263468434
30
0
10
-15.086961733192156
20
1.1061107069486107
30
0
10
-14.035927267429468
20
4.4252547987457236
30
0
10
-12.088092505037555
20
6.9947365809218915
30
0
10
-10.178833251934041
20
9.5133315680431316
30
0
10
-7.420844049316015
20
11.291897878157503
30
0
10
-4.4712984250369328
20
11.958386459782549
30
0
10
-1.5867268207262604
20
12.610193308040001
30
0
10
1.4576942364911485
20
12.191046639166526
30
0
10
3.930854448304244
20
10.848191749991678
30
0
10
6.34255366256654
20
9.5387084154215156
30
0
10
8.1874769683126321
20
7.3608124307491218
30
0
10
9.0279682587185341
20
4.907258881904955
30
0
10
9.844488026182054
20
2.5236827568102655
30
0
10
9.701321349326923
20
-0.095772971229926562
30
0
10
8.6907003480996075
20
-2.2280390517461237
30
0
10
7.6846265715313136
20
-4.350711137194792
30
0
10
5.8292585029778188
20
-5.957811203194697
30
0
10
3.7500891652878114
20
-6.5827968065653311
30
0
0
CIRCLE
5
104
100
AcDbEntity
8
0
100
AcDbCircle
10
0
20
0
30
0
40
30
210
0
220
0
230
1
0
CIRCLE
5
105
100
AcDbEntity
8
0
100
AcDbCircle
10
0
20
0
30
0
40
3.2000000000000002
210
0
220
-0
230
1
0
ARC
5
106
100
AcDbEntity
8
0
100
AcDbCircle
10
-11.904750000000035
20
-20.619631851405572
30
0
40
0.19050000000000164
210
0
220
0
230
1
100
AcDbArc
50
-124.1912171655467
51
55.808782834453893
0
SPLINE
5
107
100
AcDbEntity
8
0
100
AcDbSpline
70
0
71
3
72
47
73
43
74
0
42
0.000000001
43
0.0000000001
44
0.0000000001
40
-1
40
-1
40
-1
40
-1
40
-0.92263818349548166
40
-0.92263818349548166
40
-0.92263818349548166
40
-0.84199823022769016
40
-0.84199823022769016
40
-0.84199823022769016
40
-0.76497549358008954
40
-0.76497549358008954
40
-0.76497549358008954
40
-0.68663399144011938
40
-0.68663399144011938
40
-0.68663399144011938
40
-0.61198044857262679
40
-0.61198044857262679
40
-0.61198044857262679
40
-0.53817901753496589
40
-0.53817901753496589
40
-0.53817901753496589
40
-0.46525544455067891
40
-0.46525544455067891
40
-0.46525544455067891
40
-0.39458394276027953
40
-0.39458394276027953
40
-0.39458394276027953
40
-0.32518500631351421
40
-0.32518500631351421
40
-0.32518500631351421
40
-0.25716046741119986
40
-0.25716046741119986
40
-0.25716046741119986
40
-0.19063440601556159
40
-0.19063440601556159
40
-0.19063440601556159
40
-0.12576159702907641
40
-0.12576159702907641
40
-0.12576159702907641
40
-0.062739015461189887
40
-0.062739015461189887
40
-0.062739015461189887
40
0
40
0
40
0
40
0
10
-12.011802730124776
20
-20.777207112702637
30
0
10
-15.906578732603748
20
-18.131192751960626
30
0
10
-18.940602167982824
20
-14.348752149724678
30
0
10
-20.63982379807047
20
-10.074426781480035
30
0
10
-22.411048402573968
20
-5.6189807549967705
30
0
10
-22.712229995698785
20
-0.65347191471234467
30
0
10
-21.520841388311691
20
3.8710830265230882
30
0
10
-20.382894164470983
20
8.1926827988975734
30
0
10
-17.891004641010838
20
12.090679842832488
30
0
10
-14.531086031862376
20
14.866020849714401
30
0
10
-11.113639672964023
20
17.688880603770663
30
0
10
-6.8145772619847662
20
19.332134026323839
30
0
10
-2.5063533128672044
20
19.50219518682573
30
0
10
1.5990591758232842
20
19.664250646433086
30
0
10
5.689893155770398
20
18.489581118610509
30
0
10
8.9871095649885788
20
16.238320021364082
30
0
10
12.246690826564848
20
14.0127553095713
30
0
10
14.711528805828795
20
10.746603271706615
30
0
10
15.918047746008487
20
7.1152811190184329
30
0
10
17.110215306366769
20
3.5271530528311716
30
0
10
17.065139685884397
20
-0.39594939899232517
30
0
10
15.831130831747132
20
-3.8371008564348932
30
0
10
14.6352314075195
20
-7.1719805315995888
30
0
10
12.330287794670769
20
-10.03281195295555
30
0
10
9.4318283986575064
20
-11.842069155143671
30
0
10
6.5855608888197548
20
-13.618747482468576
30
0
10
3.1855805534984096
20
-14.368096979246815
30
0
10
-0.01357332525525418
20
-13.965963482376111
30
0
10
-3.1493701922101485
20
-13.571793959003253
30
0
10
-6.0686483996353102
20
-12.072588400011552
30
0
10
-8.1206172537272909
20
-9.8514512497587212
30
0
10
-10.127384343546053
20
-7.6792423849835192
30
0
10
-11.286603207643894
20
-4.8331230752013346
30
0
10
-11.360236864879807
20
-2.0198760599773307
30
0
10
-11.432040637425928
20
0.72345839304339188
30
0
10
-10.468389039816914
20
3.4101568357047491
30
0
10
-8.763794981524283
20
5.3648204185371995
30
0
10
-7.1078173884889289
20
7.2637353416215227
30
0
10
-4.7677188452486057
20
8.4494772255422781
30
0
10
-2.4158117514085862
20
8.6403868042657841
30
0
10
-0.074486914298149132
20
8.8304373974539008
30
0
10
2.2449866021289706
20
8.0271915496273838
30
0
10
3.8258246797873294
20
6.539070886883791
30
0
0
ARC
5
108
100
AcDbEntity
8
0
100
AcDbCircle
10
3.6952500000000033
20
6.4003607466688912
30
0
40
0.1905
210
0
220
0
230
1
100
AcDbArc
50
-133.26954297352427
51
46.73045702647574
0
SPLINE
5
109
100
AcDbEntity
8
0
100
AcDbSpline
70
0
71
3
72
47
73
43
74
0
42
0.000000001
43
0.0000000001
44
0.0000000001
40
0
40
0
40
0
40
0
40
0.060161046583022508
40
0.060161046583022508
40
0.060161046583022508
40
0.12362278123319001
40
0.12362278123319001
40
0.12362278123319001
40
0.18893019191593247
40
0.18893019191593247
40
0.18893019191593247
40
0.25588302909886523
40
0.25588302909886523
40
0.25588302909886523
40
0.3243249961467578
40
0.3243249961467578
40
0.3243249961467578
40
0.39413150284213133
40
0.39413150284213133
40
0.39413150284213133
40
0.46520071921562856
40
0.46520071921562856
40
0.46520071921562856
40
0.5385093959284083
40
0.5385093959284083
40
0.5385093959284083
40
0.61268542057743669
40
0.61268542057743669
40
0.61268542057743669
40
0.68770422070341797
40
0.68770422070341797
40
0.68770422070341797
40
0.7657781655275635
40
0.7657781655275635
40
0.7657781655275635
40
0.84313726626433083
40
0.84313726626433083
40
0.84313726626433083
40
0.92424616109987978
40
0.92424616109987978
40
0.92424616109987978
40
1
40
1
40
1
40
1
10
3.5646753202126771
20
6.2616506064539923
30
0
10
2.1268601052441789
20
7.6151368115504177
30
0
10
0.036741472961776267
20
8.3817861947001511
30
0
10
-2.1089671151328697
20
8.2784829517744711
30
0
10
-4.3723983017285386
20
8.1695120584240009
30
0
10
-6.6649049313183975
20
7.0933097590644678
30
0
10
-8.312226658983402
20
5.2982001184813878
30
0
10
-10.007457922173263
20
3.4508827836439293
30
0
10
-11.002072587033211
20
0.8654251224037659
30
0
10
-10.9828541943752
20
-1.8010345615860577
30
0
10
-10.963151592463751
20
-4.5346759540505879
30
0
10
-9.8802873217829212
20
-7.3263660660296273
30
0
10
-7.952011887300932
20
-9.4708529540302386
30
0
10
-5.9808487626451878
20
-11.663036393876906
30
0
10
-3.1447974955372344
20
-13.160918209043267
30
0
10
-0.081624605237736736
20
-13.572903338058826
30
0
10
3.042619306778271
20
-13.993102287730956
30
0
10
6.3784360123713579
20
-13.281824180607451
30
0
10
9.1757569819592888
20
-11.552613330142304
30
0
10
12.023677880240559
20
-9.7921232855194056
30
0
10
14.293803553640769
20
-6.9901390393470644
30
0
10
15.469778663309452
20
-3.7160564307802657
30
0
10
16.682809895902668
20
-0.33880428519639294
30
0
10
16.723332715230221
20
3.51790581304983
30
0
10
15.540563155738937
20
7.0428268439887098
30
0
10
14.343799717453445
20
10.609452801529972
30
0
10
11.903461894129954
20
13.814152923930239
30
0
10
8.6805849446297358
20
15.985859343120294
30
0
10
5.4210902109987646
20
18.18224032423106
30
0
10
1.3808451911843904
20
19.310115623467379
30
0
10
-2.6644583285687133
20
19.113875239322176
30
0
10
-6.8745070532582346
20
18.909642954904239
30
0
10
-11.065444786467719
20
17.270942324430926
30
0
10
-14.391292236812408
20
14.486751751909123
30
0
10
-17.686688268431478
20
11.728053194340383
30
0
10
-20.116639524728374
20
7.8616606048456532
30
0
10
-21.201154622369032
20
3.5854322458730765
30
0
10
-22.338238949414389
20
-0.89807587350003437
30
0
10
-21.987724633893766
20
-5.8085187329265704
30
0
10
-20.179917630233369
20
-10.195175482084281
30
0
10
-18.49146754352628
20
-14.292211810338781
30
0
10
-15.551241831274574
20
-17.911991372795356
30
0
10
-11.79769726987529
20
-20.462056590108503
30
0
0
ARC
5
110
100
AcDbEntity
8
0
100
AcDbCircle
10
23.8095
20
-8.9164786665207885e-15
30
0
40
0.19050000000000034
210
0
220
0
230
1
100
AcDbArc
50
-4.1912171655505652
51
175.80878283444937
0
SPLINE
5
111
100
AcDbEntity
8
0
100
AcDbSpline
70
0
71
3
72
47
73
43
74
0
42
0.000000001
43
0.0000000001
44
0.0000000001
40
-1
40
-1
40
-1
40
-1
40
-0.92263818351788385
40
-0.92263818351788385
40
-0.92263818351788385
40
-0.84199823024153575
40
-0.84199823024153575
40
-0.84199823024153575
40
-0.76497549359256678
40
-0.76497549359256678
40
-0.76497549359256678
40
-0.68663399145675563
40
-0.68663399145675563
40
-0.68663399145675563
40
-0.61198044859975453
40
-0.61198044859975453
40
-0.61198044859975453
40
-0.53817901755608311
40
-0.53817901755608311
40
-0.53817901755608311
40
-0.46525544456934798
40
-0.46525544456934798
40
-0.46525544456934798
40
-0.39458394276618131
40
-0.39458394276618131
40
-0.39458394276618131
40
-0.32518500632270131
40
-0.32518500632270131
40
-0.32518500632270131
40
-0.25716046742573595
40
-0.25716046742573595
40
-0.25716046742573595
40
-0.19063440602449583
40
-0.19063440602449583
40
-0.19063440602449583
40
-0.12576159704062317
40
-0.12576159704062317
40
-0.12576159704062317
40
-0.062739015468876114
40
-0.062739015468876114
40
-0.062739015468876114
40
0
40
0
40
0
40
0
10
23.999490544353602
20
-0.013922753183991327
30
0
10
23.655362890507515
20
-4.7099048924467377
30
0
10
21.896684959299584
20
-9.2286665629689502
30
0
10
19.044621422841644
20
-12.837398344889134
30
0
10
16.071704281291439
20
-16.599046862387283
30
0
10
11.922038279338603
20
-19.342632194246299
30
0
10
7.4079644553531745
20
-20.573136865721242
30
0
10
3.0963756556010882
20
-21.748445548398006
30
0
10
-1.525333570181302
20
-21.539404440112069
30
0
10
-5.6088086911260771
20
-20.017300073766641
30
0
10
-9.7622001288647287
20
-18.469134588418694
30
0
10
-13.334830543302658
20
-15.567664039919087
30
0
10
-15.636219803453191
20
-11.921663235537331
30
0
10
-17.82927019282981
20
-8.4472994578972642
30
0
10
-18.857393531295237
20
-4.3171985454841044
30
0
10
-18.556352436104643
20
-0.33609482514726868
30
0
10
-18.258747489604282
20
3.599567709408368
30
0
10
-16.662595842474754
20
7.3672560353012102
30
0
10
-14.121038079323755
20
10.227793164732081
30
0
10
-11.609711802581614
20
13.054304591263632
30
0
10
-8.1896676076016757
20
14.976819185452502
30
0
10
-4.5925386000804691
20
15.628711898644916
30
0
10
-1.1064983701605779
20
16.260472455196762
30
0
10
2.5235261239148672
20
15.694748443163844
30
0
10
5.5396185216422662
20
14.089237575346942
30
0
10
8.5014008423367446
20
12.512636769759576
30
0
10
10.850346710599696
20
9.9428421756948442
30
0
10
12.101665826194122
20
6.9712268978832759
30
0
10
13.328203439210613
20
4.0584623886326341
30
0
10
13.489492443732637
20
0.78069052107630288
30
0
10
12.591915673873704
20
-2.1069352094075957
30
0
10
11.714111159911377
20
-4.9309509214573923
30
0
10
9.8289089676009347
20
-7.3579235616868264
30
0
10
7.4293824138431086
20
-8.8283156874131343
30
0
10
5.0894869729451155
20
-10.262166805222659
30
0
10
2.2809120706512283
20
-10.770969262936712
30
0
10
-0.26417327707342003
20
-10.272079297093619
30
0
10
-2.7366706368518394
20
-9.7874180952719332
30
0
10
-4.9336025026182124
20
-8.3537042515739461
30
0
10
-6.2748885948228548
20
-6.412347750324102
30
0
10
-7.6101396554480871
20
-4.4797262593453908
30
0
10
-8.0742451041705934
20
-2.0693803464807075
30
0
10
-7.5759138450818329
20
0.043725919681238096
30
0
0
ARC
5
112
100
AcDbEntity
8
0
100
AcDbCircle
10
-7.3904999999999994
20
-2.4286128663675299e-16
30
0
40
0.19050000000000034
210
0
220
0
230
1
100
AcDbArc
50
-13.269542974093937
51
166.73045702590582
0
SPLINE
5
113
100
AcDbEntity
8
0
100
AcDbSpline
70
0
71
3
72
47
73
43
74
0
42
0.000000001
43
0.0000000001
44
0.0000000001
40
0
40
0
40
0
40
0
40
0.060161046591352949
40
0.060161046591352949
40
0.060161046591352949
40
0.12362278124087704
40
0.12362278124087704
40
0.12362278124087704
40
0.18893019192882193
40
0.18893019192882193
40
0.18893019192882193
40
0.25588302911121785
40
0.25588302911121785
40
0.25588302911121785
40
0.3243249961471168
40
0.3243249961471168
40
0.3243249961471168
40
0.39413150283414189
40
0.39413150283414189
40
0.39413150283414189
40
0.46520071920707451
40
0.46520071920707451
40
0.46520071920707451
40
0.53850939592521785
40
0.53850939592521785
40
0.53850939592521785
40
0.61268542057226427
40
0.61268542057226427
40
0.61268542057226427
40
0.68770422069791171
40
0.68770422069791171
40
0.68770422069791171
40
0.76577816552343381
40
0.76577816552343381
40
0.76577816552343381
40
0.84313726624949004
40
0.84313726624949004
40
0.84313726624949004
40
0.92424616110403113
40
0.92424616110403113
40
0.92424616110403113
40
1
40
1
40
1
40
1
10
-7.2050861549181668
20
-0.043725919681238096
30
0
10
-7.6583319847973197
20
-1.9656535245855487
30
0
10
-7.2772105100649629
20
-4.1590740489964038
30
0
10
-6.1148929829837817
20
-5.9656605740887558
30
0
10
-4.8888058275665252
20
-7.8713640345949667
30
0
10
-2.810533981781997
20
-9.3186318642722235
30
0
10
-0.43226256658260986
20
-9.8476995081268264
30
0
10
2.0151768060975539
20
-10.392154179744837
30
0
10
4.7515561537904647
20
-9.9607869155084838
30
0
10
7.0511687819763633
20
-8.6109134567973022
30
0
10
9.4087203715378926
20
-7.2270298064444294
30
0
10
11.284962792347486
20
-4.8933967829417613
30
0
10
12.178005197841475
20
-2.1512178270656128
30
0
10
13.090910183659616
20
0.6519512334676183
30
0
10
12.970088253713213
20
3.8569845841791355
30
0
10
11.795291396469727
20
6.7157626873648004
30
0
10
10.597072405655968
20
9.6315367572724888
30
0
10
8.3131791433330822
20
12.164799712864733
30
0
10
5.4169781340166683
20
13.722745309865443
30
0
10
2.4683885832825414
20
15.308872133643046
30
0
10
-1.0932637915198151
20
15.873866513772587
30
0
10
-4.5166900594663719
20
15.255249528961984
30
0
10
-8.0479918291152224
20
14.617139319418362
30
0
10
-11.408262159261344
20
12.723878061300072
30
0
10
-13.869548538897172
20
9.9371090603559118
30
0
10
-16.359955504790783
20
7.1173685418573784
30
0
10
-17.915138310719545
20
3.4016239320211312
30
0
10
-18.184452764725268
20
-0.47532258899142027
30
0
10
-18.456827124124263
20
-4.3963183223377982
30
0
10
-17.413473275837472
20
-8.4592107966407806
30
0
10
-15.220872358217008
20
-11.864426218776554
30
0
10
-12.938977649424345
20
-15.408319223484231
30
0
10
-9.424352407682786
20
-18.218427451071747
30
0
10
-5.3502489177122881
20
-19.706600546083415
30
0
10
-1.3134478702778645
20
-21.181147946142296
30
0
10
3.249921960658908
20
-21.352351169624466
30
0
10
7.4955019002672127
20
-20.153454616160072
30
0
10
11.946875994411158
20
-18.896444470181702
30
0
10
16.024187097908914
20
-16.137668738312062
30
0
10
18.919239779086631
20
-12.378733572440881
30
0
10
21.623152275966142
20
-8.8679747402996156
30
0
10
23.287860476859731
20
-4.5117747996883075
30
0
10
23.619509455646398
20
0.013922753183973832
30
0
0
ENDSEC
0
SECTION
2
OBJECTS
0
DICTIONARY
5
C
100
AcDbDictionary
3
ACAD_GROUP
350
D
3
ACAD_MLINESTYLE
350
17
0
DICTIONARY
5
D
100
AcDbDictionary
0
DICTIONARY
5
1A
330
C
100
AcDbDictionary
0
DICTIONARY
5
17
100
AcDbDictionary
0
ENDSEC
0
EOF
