0
SECTION
2
HEADER
9
$INSUNITS
70
4
9
$ACADVER
1
AC1014
9
$HANDSEED
5
FFFF
0
ENDSEC
0
SECTION
2
TABLES
0
TABLE
2
VPORT
5
8
100
AcDbSymbolTable
0
ENDTAB
0
TABLE
2
LTYPE
5
5
100
AcDbSymbolTable
0
LTYPE
5
14
100
AcDbSymbolTableRecord
100
AcDbLinetypeTableRecord
2
BYBLOCK
70
0
0
LTYPE
5
15
100
AcDbSymbolTableRecord
100
AcDbLinetypeTableRecord
2
BYLAYER
70
0
0
LTYPE
5
16
100
AcDbSymbolTableRecord
100
AcDbLinetypeTableRecord
2
DASHED
70
0
3
Dashed __ __ __ __ __ __ __ __ __ __ __ __ __ _
72
65
73
2
40
0.75
49
0.5
74
0
49
-0.25
74
0
0
ENDTAB
0
TABLE
2
LAYER
5
2
100
AcDbSymbolTable
70
2
0
LAYER
5
50
100
AcDbSymbolTableRecord
100
AcDbLayerTableRecord
2
0
70
0
62
7
6
CONTINUOUS
0
ENDTAB
0
TABLE
2
STYLE
5
3
100
AcDbSymbolTable
70
1
0
STYLE
5
11
100
AcDbSymbolTableRecord
100
AcDbTextStyleTableRecord
2
STANDARD
70
0
0
ENDTAB
0
TABLE
2
VIEW
5
6
100
AcDbSymbolTable
70
0
0
ENDTAB
0
TABLE
2
UCS
5
7
100
AcDbSymbolTable
70
0
0
ENDTAB
0
TABLE
2
APPID
5
9
100
AcDbSymbolTable
70
2
0
APPID
5
12
100
AcDbSymbolTableRecord
100
AcDbRegAppTableRecord
2
ACAD
70
0
0
ENDTAB
0
TABLE
2
DIMSTYLE
5
A
100
AcDbSymbolTable
70
1
0
ENDTAB
0
TABLE
2
BLOCK_RECORD
5
1
100
AcDbSymbolTable
70
1
0
BLOCK_RECORD
5
1F
100
AcDbSymbolTableRecord
100
AcDbBlockTableRecord
2
*MODEL_SPACE
0
BLOCK_RECORD
5
1B
100
AcDbSymbolTableRecord
100
AcDbBlockTableRecord
2
*PAPER_SPACE
0
ENDTAB
0
ENDSEC
0
SECTION
2
BLOCKS
0
BLOCK
5
20
100
AcDbEntity
100
AcDbBlockBegin
2
*MODEL_SPACE
0
ENDBLK
5
21
100
AcDbEntity
100
AcDbBlockEnd
0
BLOCK
5
1C
100
AcDbEntity
100
AcDbBlockBegin
2
*PAPER_SPACE
0
ENDBLK
5
1D
100
AcDbEntity
100
AcDbBlockEnd
0
ENDSEC
0
SECTION
2
ENTITIES
0
LWPOLYLINE
5
100
100
AcDbEntity
8
0
100
AcDbPolyline
90
4
70
1
43
0.0
10
8.8924751841816252e-15
20
24.127000000000002
42
0.99999999999999989
10
-6.6613381477509392e-15
20
23.873000000000005
42
-0.26794919243112264
10
20.674624464545907
20
11.936499999999995
42
1.0000000105367119
10
20.894594917107149
20
12.063500000000005
42
0.26794919243112236
0
LWPOLYLINE
5
101
100
AcDbEntity
8
0
100
AcDbPolyline
90
4
70
1
43
0.0
10
-4.4087284769304741e-16
20
-7.0729999999999995
42
0.99999999999999989
10
1.6049317970081049e-15
20
-7.327
42
0.26794919243112281
10
6.3453681335285816
20
-3.6635000000000018
42
0.99999999999999989
10
6.1253976809673194
20
-3.5364999999999935
42
-0.26794919243112286
0
LWPOLYLINE
5
102
100
AcDbEntity
8
0
100
AcDbPolyline
90
4
70
1
43
0.0
10
-20.894594917107156
20
-12.063500000000003
42
0.99999999999999989
10
-20.674624464545921
20
-11.936499999999999
42
-0.26794919243112264
10
-20.674624464545907
20
11.936499999999997
42
0.99999999999999989
10
-20.894594917107163
20
12.063499999999991
42
0.2679491924311227
0
LWPOLYLINE
5
103
100
AcDbEntity
8
0
100
AcDbPolyline
90
4
70
1
43
0.0
10
-13.40001107275662
20
-7.7365000000000004
42
1.0000000105367119
10
-13.619981524371649
20
-7.8635000016389043
42
0.26794919239888032
10
-6.7235091420818146e-15
20
-15.727
42
0.99999999999999989
10
-9.9920072216264089e-15
20
-15.472999999999999
42
-0.26794919243112275
0
LWPOLYLINE
5
104
100
AcDbEntity
8
0
100
AcDbPolyline
90
4
70
1
43
0.0
10
-13.619981525317858
20
7.8635000000000197
42
0.99999999999999989
10
-13.400011072756621
20
7.7365000000000306
42
-0.26794919243112236
10
1.6592905183675671e-14
20
15.473000000000001
42
0.99999999999999989
10
1.4432899320127035e-14
20
15.727000000000002
42
0.26794919243112253
0
LWPOLYLINE
5
105
100
AcDbEntity
8
0
100
AcDbPolyline
90
4
70
1
43
0.0
10
20.894594917107145
20
-12.063500000000003
42
0.99999999999999989
10
20.674624464545886
20
-11.936499999999995
42
-0.26794919243112275
10
-1.4695761589768238e-15
20
-23.872999999999998
42
0.99999999999999989
10
6.6613381477509392e-15
20
-24.127000000000002
42
0.26794919243112264
0
LWPOLYLINE
5
106
100
AcDbEntity
8
0
100
AcDbPolyline
90
4
70
1
43
0.0
10
6.1253976809673354
20
3.5364999999999966
42
0.99999999999999989
10
6.3453681335285852
20
3.6635000000000013
42
0.26794919243112203
10
3.3811940753391069e-15
20
7.327
42
0.99999999999999989
10
5.5511151231257827e-15
20
7.0730000000000004
42
-0.26794919243112186
0
LWPOLYLINE
5
107
100
AcDbEntity
8
0
100
AcDbPolyline
90
4
70
1
43
0.0
10
-6.3453681335285825
20
-3.6635
42
0.99999999999999989
10
-6.1253976809673469
20
-3.5365000000000038
42
-0.26794919243112286
10
-6.1253976809673354
20
3.536499999999998
42
0.99999999999999989
10
-6.3453681335285843
20
3.6634999999999955
42
0.26794919243112292
0
CIRCLE
5
108
100
AcDbEntity
8
0
100
AcDbCircle
10
-9.9920072216264089e-15
20
-1.3322676295501878e-14
30
0
40
3.2000000000000002
210
0
220
-0
230
1
0
CIRCLE
5
109
100
AcDbEntity
8
0
100
AcDbCircle
10
-9.9920072216264089e-15
20
-1.3322676295501878e-14
30
0
40
30
210
0
220
0
230
1
0
LWPOLYLINE
5
110
100
AcDbEntity
8
0
100
AcDbPolyline
90
4
70
1
43
0.0
10
13.40001107275662
20
-7.7365000000000004
42
1.0000000129047839
10
13.619981526264091
20
-7.8634999983610925
42
0.26794919239887971
10
13.619981525317872
20
7.8634999999999957
42
1.0000000105367119
10
13.400011072756612
20
7.7364999999999897
42
-0.26794919243112236
0
ENDSEC
0
SECTION
2
OBJECTS
0
DICTIONARY
5
C
100
AcDbDictionary
3
ACAD_GROUP
350
D
3
ACAD_MLINESTYLE
350
17
0
DICTIONARY
5
D
100
AcDbDictionary
0
DICTIONARY
5
1A
330
C
100
AcDbDictionary
0
DICTIONARY
5
17
100
AcDbDictionary
0
ENDSEC
0
EOF
